<svg xmlns="http://www.w3.org/2000/svg" viewBox="0 0 512 512"><defs><style>.cls-1{fill:#313d74}.cls-2{fill:#76c27d}.cls-3{fill:#db3a46}.cls-4{fill:#a3323f}.cls-5{fill:#fff}.cls-9{fill:#552d29}.cls-12{fill:#2c375f}.cls-13{fill:#40518d}.cls-15{fill:#7bb9ec}.cls-16{fill:#74acd2}</style></defs><circle class="cls-1" cx="256" cy="256" r="256" id="BULINE"/><g id="Icons"><path class="cls-2" d="M165.86 77.28c-4.53-2.89-11.61.08-16.05 6.61-2.53-7.26-8.35-11.89-13.41-10.39s-7.52 8.5-5.74 16a23.36 23.36 0 0 0-2-1.35c-7-4.27-15-3.91-17.92.82s.49 12 7.51 16.29 15 3.9 17.92-.82a7.26 7.26 0 0 0 1-4.15c2.37 1.78 5 2.52 7.49 1.8a7.09 7.09 0 0 0 3-1.83 7.13 7.13 0 0 0 2.13 2.14c4.67 3 12-.24 16.44-7.18s4.3-14.97-.37-17.94z"/><path class="cls-3" d="M118 122.81c.13 14.88 12.39 36.1 27.28 36s26.75-21.57 26.62-36.45a27 27 0 1 0-53.9.49z"/><path class="cls-4" d="M144 158.48c-14.5-.68-26.28-21.35-26.41-35.95a26.93 26.93 0 0 1 49-15.7A27 27 0 0 0 135 133.62c.09 7.88 3.56 17.54 9 24.86z"/><ellipse class="cls-5" cx="156.88" cy="122.93" rx="3.84" ry="5.82" transform="rotate(-9.43 156.968 122.991)"/><ellipse class="cls-5" cx="132.14" cy="125.38" rx="3.84" ry="5.82" transform="rotate(-30.99 132.165 125.397)"/><ellipse class="cls-5" cx="145.88" cy="106.34" rx="5.82" ry="3.84" transform="rotate(-77.47 145.875 106.34)"/><ellipse class="cls-5" cx="150" cy="142.72" rx="5.82" ry="3.84" transform="rotate(-60.12 150.007 142.729)"/><path class="cls-2" d="M239.09 74.59c-4.85-2.33-11.52 1.45-15.17 8.47-3.36-6.91-9.69-10.8-14.54-8.74s-6.45 9.33-3.81 16.56c-.67-.39-1.36-.77-2.1-1.11-7.48-3.41-15.4-2.1-17.7 2.93s1.91 11.88 9.39 15.29 15.4 2.1 17.7-2.93a7.38 7.38 0 0 0 .51-4.24c2.56 1.49 5.28 1.91 7.64.91a7.27 7.27 0 0 0 2.8-2.18 7.1 7.1 0 0 0 2.37 1.87c5 2.39 11.91-1.67 15.48-9.08s2.41-15.34-2.57-17.75z"/><path class="cls-3" d="M197 125.46c1.9 14.76 16.59 34.38 31.35 32.49s24-24.59 22.12-39.36a27 27 0 1 0-53.47 6.87z"/><path class="cls-4" d="M227 157.8c-14.48 1-28.63-18.08-30.48-32.56a26.94 26.94 0 0 1 46.8-21.4 27 27 0 0 0-28.2 30.35c1.01 7.81 5.59 16.99 11.88 23.61z"/><ellipse class="cls-5" cx="235.57" cy="120.98" rx="3.84" ry="5.82" transform="rotate(-16.23 235.597 121.001)"/><ellipse class="cls-5" cx="211.29" cy="126.35" rx="3.84" ry="5.82" transform="rotate(-37.79 211.29 126.337)"/><ellipse class="cls-5" cx="222.68" cy="105.81" rx="5.82" ry="3.84" transform="rotate(-84.27 222.67 105.817)"/><ellipse class="cls-5" cx="231.08" cy="141.45" rx="5.82" ry="3.84" transform="rotate(-66.92 231.075 141.452)"/><path class="cls-2" d="M322.11 79.53c-4.27-3.26-11.57-.9-16.56 5.23-1.9-7.44-7.32-12.52-12.48-11.49s-8.2 7.84-7.07 15.46a22.69 22.69 0 0 0-1.83-1.52c-6.64-4.85-14.67-5.16-17.93-.69s-.53 12 6.11 16.86 14.66 5.17 17.93.7a7.38 7.38 0 0 0 1.35-4c2.21 2 4.78 2.94 7.31 2.43a7.12 7.12 0 0 0 3.17-1.57 7.12 7.12 0 0 0 1.95 2.31c4.4 3.35 12 .77 17-5.77s5.45-14.6 1.05-17.95z"/><path class="cls-3" d="M270.61 120.86c-1.12 14.84 9.31 37 24.15 38.14s28.48-19.24 29.6-34.08a27 27 0 1 0-53.75-4.06z"/><path class="cls-4" d="M293.5 158.59c-14.39-1.89-24.39-23.48-23.29-38A26.94 26.94 0 0 1 320.36 109a27 27 0 0 0-33.74 24c-.62 7.93 2.05 17.84 6.88 25.59z"/><ellipse class="cls-5" cx="309.31" cy="124.26" rx="3.84" ry="5.82" transform="rotate(-4.6 308.984 124.132)"/><ellipse class="cls-5" cx="284.45" cy="124.61" rx="3.84" ry="5.82" transform="rotate(-26.15 284.498 124.614)"/><ellipse class="cls-5" cx="299.75" cy="106.8" rx="5.82" ry="3.84" transform="rotate(-72.63 299.744 106.799)"/><ellipse class="cls-5" cx="300.78" cy="143.4" rx="5.82" ry="3.84" transform="rotate(-55.28 300.796 143.395)"/><path class="cls-2" d="M399.41 80.28c-4.18-3.37-11.54-1.21-16.68 4.8-1.71-7.49-7-12.72-12.18-11.81s-8.41 7.61-7.47 15.26a22.63 22.63 0 0 0-1.8-1.56c-6.51-5-14.52-5.55-17.9-1.17s-.84 12 5.67 17 14.52 5.55 17.9 1.17a7.38 7.38 0 0 0 1.46-4c2.15 2 4.7 3.06 7.24 2.62a7.31 7.31 0 0 0 3.22-1.49 6.85 6.85 0 0 0 1.88 2.36c4.31 3.47 12 1.09 17.13-5.32s5.84-14.39 1.53-17.86z"/><path class="cls-3" d="M346.85 120.25c-1.51 14.8 8.33 37.25 23.14 38.76s29-18.49 30.49-33.3a27 27 0 0 0-53.63-5.46z"/><path class="cls-4" d="M368.74 158.57c-14.34-2.27-23.77-24.12-22.28-38.65a26.94 26.94 0 0 1 50.44-10.19 26.34 26.34 0 0 0-4.82-.93 26.93 26.93 0 0 0-29.54 24.07c-.81 7.84 1.57 17.82 6.2 25.7z"/><ellipse class="cls-5" cx="385.45" cy="124.66" rx="3.84" ry="5.82" transform="rotate(-3.09 385.658 124.678)"/><ellipse class="cls-5" cx="360.59" cy="124.36" rx="3.84" ry="5.82" transform="rotate(-24.65 360.6 124.368)"/><ellipse class="cls-5" cx="376.35" cy="106.96" rx="5.82" ry="3.84" transform="rotate(-71.13 376.315 106.965)"/><ellipse class="cls-5" cx="376.42" cy="143.57" rx="5.82" ry="3.84" transform="rotate(-53.78 376.414 143.57)"/><path style="fill:#854538" d="M105.74 156.37h300.47v161.5H105.74z"/><path style="fill:#65352d" d="M105.74 241.87h300.47v35.67H105.74z"/><path style="fill:#743c34" d="M105.74 156.37h63.33v161.5h-63.33z"/><path class="cls-9" d="M105.74 241.87h63.33v35.67h-63.33z"/><path d="M392.32 139.37h-275a24.76 24.76 0 0 0-24.75 24.75v70.07a13 13 0 0 0 12.52 13.17 12.74 12.74 0 0 0 13-12.74v-10.68a11.07 11.07 0 0 1 11.08-11.07H132a11.06 11.06 0 0 1 11.07 11.07 13 13 0 0 0 12.52 13.17 12.74 12.74 0 0 0 13-12.74 11.5 11.5 0 0 1 11.5-11.5h2.75a11.49 11.49 0 0 1 11.5 11.5v9.82a13 13 0 0 0 12.52 13.17 12.74 12.74 0 0 0 13-12.74v-10.68a11.07 11.07 0 0 1 11.08-11.07h2.25a11.07 11.07 0 0 1 11.08 11.07 13 13 0 0 0 12.51 13.17 12.75 12.75 0 0 0 13-12.74 11.49 11.49 0 0 1 11.5-11.5h.59a11.49 11.49 0 0 1 11.5 11.5v9.82a13 13 0 0 0 12.52 13.17 12.74 12.74 0 0 0 13-12.74v-11.3a10.45 10.45 0 0 1 10.46-10.45 10.45 10.45 0 0 1 10.45 10.45v.62a13 13 0 0 0 12.51 13.17 12.75 12.75 0 0 0 13-12.74 11.49 11.49 0 0 1 11.5-11.5h3.34a11.49 11.49 0 0 1 11.5 11.5v9.82a13 13 0 0 0 12.52 13.17 12.74 12.74 0 0 0 13-12.74v-70.5a24.75 24.75 0 0 0-24.85-24.75z" style="fill:#f0c788"/><path d="M159.9 234.2a13.21 13.21 0 0 0 .18 2.19 12.65 12.65 0 0 1-4.5.73 12.48 12.48 0 0 1-8.89-4 13.42 13.42 0 0 1-3.62-9.17A11.08 11.08 0 0 0 132 212.87h-2.85A11.08 11.08 0 0 0 118.07 224v10.67a12.75 12.75 0 0 1-13 12.75 13 13 0 0 1-12.5-13.22v-70.08a24.75 24.75 0 0 1 24.75-24.75h67.33a24.75 24.75 0 0 0-24.75 24.75z" style="fill:#eab875"/><circle class="cls-1" cx="99.5" cy="303.63" r="14.91"/><path class="cls-12" d="M104.56 317.66a14.91 14.91 0 1 1 0-28.06 14.91 14.91 0 0 0 0 28.06z"/><circle class="cls-13" cx="104.56" cy="300.44" r="5.06"/><circle class="cls-1" cx="148.28" cy="303.63" r="14.91"/><path class="cls-12" d="M153.34 317.66a14.91 14.91 0 1 1 0-28.06 14.92 14.92 0 0 0 0 28.06z"/><circle class="cls-13" cx="153.34" cy="300.44" r="5.06"/><circle class="cls-1" cx="204.13" cy="303.63" r="14.91"/><path class="cls-12" d="M209.19 317.66a14.91 14.91 0 1 1 0-28.06 14.91 14.91 0 0 0 0 28.06z"/><circle class="cls-13" cx="209.19" cy="300.44" r="5.06"/><circle class="cls-1" cx="252.91" cy="303.63" r="14.91"/><path class="cls-12" d="M258 317.66a14.91 14.91 0 1 1 0-28.06 14.91 14.91 0 0 0 0 28.06z"/><circle class="cls-13" cx="257.97" cy="300.44" r="5.06"/><circle class="cls-1" cx="306.05" cy="303.63" r="14.91"/><path class="cls-12" d="M311.11 317.66a14.91 14.91 0 1 1 0-28.06 14.91 14.91 0 0 0 0 28.06z"/><circle class="cls-13" cx="311.11" cy="300.44" r="5.06"/><circle class="cls-1" cx="354.83" cy="303.63" r="14.91"/><path class="cls-12" d="M359.89 317.66a14.91 14.91 0 1 1 0-28.06 14.91 14.91 0 0 0 0 28.06z"/><circle class="cls-13" cx="359.89" cy="300.44" r="5.06"/><circle class="cls-1" cx="406.21" cy="303.63" r="14.91"/><path class="cls-12" d="M411.27 317.66a14.91 14.91 0 1 1 0-28.06 14.91 14.91 0 0 0 0 28.06z"/><circle class="cls-13" cx="411.27" cy="300.44" r="5.06"/><rect x="389.17" y="156.37" width="22.1" height="54.5" rx="11.05" style="fill:#eed5b1"/><circle class="cls-9" cx="186.33" cy="255.87" r="7.71"/><circle class="cls-9" cx="236.55" cy="255.87" r="7.71"/><circle class="cls-9" cx="311.11" cy="255.87" r="7.71"/><circle class="cls-9" cx="354.83" cy="251.87" r="7.71"/><circle class="cls-9" cx="211.37" cy="267.4" r="6"/><circle class="cls-9" cx="265.52" cy="251.87" r="6"/><circle class="cls-9" cx="257.97" cy="267.4" r="6"/><circle class="cls-9" cx="288.41" cy="267.4" r="6"/><circle class="cls-9" cx="332.87" cy="267.4" r="6"/><circle class="cls-9" cx="360.72" cy="269.57" r="6"/><circle class="cls-9" cx="385.85" cy="261.41" r="6"/><path class="cls-15" d="M290.73 451.15H272a25.55 25.55 0 0 0 7.78-18.5 26 26 0 0 0-2.24-10.65 47.42 47.42 0 0 0 23.27-41.26c0-26-20.07-47.06-44.83-47.06s-44.84 21.07-44.84 47.06A47.42 47.42 0 0 0 234.41 422a26 26 0 0 0-2.28 10.69 25.51 25.51 0 0 0 7.79 18.5h-18.69a39.72 39.72 0 0 0-39.72 39.72h148.93a39.71 39.71 0 0 0-39.71-39.76z"/><path class="cls-16" d="M258.46 432.65a25.5 25.5 0 0 0 7.79 18.5h-18.7a39.71 39.71 0 0 0-39.71 39.72h-27.93a39.71 39.71 0 0 1 39.71-39.72h18.69a25.53 25.53 0 0 1-7.78-18.5 25.8 25.8 0 0 1 2.28-10.65 47.43 47.43 0 0 1-23.28-41.26c0-26 20.07-47.06 44.84-47.06a43 43 0 0 1 14 2.33c-17.92 6.16-30.87 23.86-30.87 44.73A47.42 47.42 0 0 0 260.74 422a26 26 0 0 0-2.28 10.65z"/><path class="cls-15" d="M413.32 358.3H98.63a42.67 42.67 0 0 1-41.2-31.57 7 7 0 0 1 6.8-8.86h383.49a7 7 0 0 1 6.8 8.86 42.67 42.67 0 0 1-41.2 31.57z"/><path class="cls-16" d="M454.52 326.05a42.7 42.7 0 0 1-41.2 31.58H98.63a42.68 42.68 0 0 1-41.2-31.58 7.4 7.4 0 0 1-.25-1.84 7.06 7.06 0 0 1 2.91-5.67 42.64 42.64 0 0 0 38.54 24.4h314.69a42.63 42.63 0 0 0 38.54-24.39 7 7 0 0 1 2.66 7.5z"/></g></svg>