<svg xmlns="http://www.w3.org/2000/svg" viewBox="0 0 512 512"><defs><style>.cls-1{fill:#313d74}.cls-2{fill:#8ed685}.cls-3{fill:#7fbd75}.cls-4{fill:#a1db9b}.cls-5{fill:#76c27d}.cls-6{fill:#6bac6f}.cls-8{fill:#ab6833}.cls-9{fill:#2c375f}.cls-10{fill:#40518d}.cls-11{fill:#bb7c48}.cls-12{fill:#db3a46}.cls-13{fill:#b33340}.cls-14{fill:#d95f6c}.cls-20{fill:#8b9ed9}</style></defs><circle class="cls-1" cx="256" cy="256" r="256" id="BULINE"/><g id="Icons"><path class="cls-2" d="M131.17 153.2h15.78a9.13 9.13 0 0 1 9.13 9.13v121.08H122V162.33a9.13 9.13 0 0 1 9.13-9.13z" transform="rotate(-21.03 139.05 218.31)"/><path class="cls-3" d="M122.2 155.14a9.11 9.11 0 0 0-4.09 11.25l43.45 113-17.11 6.61L101 173a9.12 9.12 0 0 1 5.25-11.79l14.75-5.7a7.57 7.57 0 0 1 1.2-.37z"/><rect class="cls-4" x="142.39" y="167.05" width="9.67" height="99.67" rx="4.83" transform="rotate(-21.03 147.225 216.9)"/><path class="cls-2" d="M162.22 136.85H178a9.13 9.13 0 0 1 9.13 9.13v121.08h-34V146a9.13 9.13 0 0 1 9.09-9.15z" transform="rotate(11.4 170.117 201.985)"/><path class="cls-3" d="M189.76 139.6a9.11 9.11 0 0 0-9.48 7.3l-23.94 118.69-18-3.62 23.94-118.69a9.14 9.14 0 0 1 10.76-7.15l15.45 3.12a8.41 8.41 0 0 1 1.27.35z"/><rect class="cls-4" x="172.93" y="155.3" width="9.67" height="99.67" rx="4.83" transform="rotate(11.4 177.77 205.167)"/><path class="cls-2" d="M391.57 140.32h15.78a9.13 9.13 0 0 1 9.13 9.13v121.08h-34V149.45a9.13 9.13 0 0 1 9.13-9.13z" transform="rotate(39.51 399.499 205.466)"/><path class="cls-3" d="M446.17 159.69a9.1 9.1 0 0 0-11.8 2l-77 93.41-14.14-11.66 77-93.41a9.13 9.13 0 0 1 12.85-1.24l12.17 10a7.74 7.74 0 0 1 .92.9z"/><rect class="cls-4" x="399.88" y="162.01" width="9.67" height="99.67" rx="4.83" transform="rotate(39.51 404.756 211.877)"/><path class="cls-2" d="M340 145.79h15.78a9.13 9.13 0 0 1 9.13 9.13V276h-34V154.92a9.13 9.13 0 0 1 9.09-9.13z" transform="rotate(14.9 347.963 210.942)"/><path class="cls-3" d="M371.3 149.86a9.1 9.1 0 0 0-9.91 6.71l-31.14 117-17.72-4.71 31.14-117a9.13 9.13 0 0 1 11.18-6.47l15.24 4.05a8.7 8.7 0 0 1 1.21.42z"/><rect class="cls-4" x="350.49" y="164.7" width="9.67" height="99.67" rx="4.83" transform="rotate(14.9 355.402 214.597)"/><path class="cls-5" d="M484.28 287.31a18.57 18.57 0 0 0-2.14-1.07c4.33-9.32 3.35-19.78-3.33-26.26-4.91-4.76-11.86-6.38-18.84-5.09a54.25 54.25 0 0 0 6.86-17.89c2.38-14.67-5.6-28.17-17.82-30.15s-24.05 8.32-26.42 23 3.73 38.85 15.79 41.12c-7.5 11.82-12 28.7-4.84 35.7 3.13 3 8 3.79 13.55 3.05-3.81 13-3.7 29 4.56 33.84 10.7 6.21 31-8.83 38.5-21.68s4.85-28.36-5.87-34.57zM114.18 235.45c-1.33-14.8-12.39-25.91-24.72-24.81s-21.25 14-19.93 28.8a43.88 43.88 0 0 0 1.2 6.73 20 20 0 0 0-14.58-.31c-11.57 4.39-16.68 19.21-11.41 33.14a50 50 0 0 0 6.92 12.08c-7.79-5.64-17.49-6.84-25-2.21-10.53 6.51-12.73 22-4.92 34.68s28.55 27.13 39.08 20.63 6.87-31.53-.95-44.18l-.09-.15c6.46 5.63 13.67 9 19.4 6.82 8.9-3.37 11.63-19.09 10-32.49a11.45 11.45 0 0 0 6 1.23c12.39-1.13 20.32-25.15 19-39.96z"/><path class="cls-6" d="M63.28 342a10.16 10.16 0 0 1-2.45 2.13c-10.53 6.51-31.27-8-39.08-20.63s-5.6-28.17 4.93-34.67c6.36-3.92 14.3-3.67 21.3-.06l-.1.06c-10.53 6.5-12.74 22-4.93 34.67 4.22 6.85 12.21 14.22 20.33 18.5zM81 299.83a41.56 41.56 0 0 0 3.4 2.68 15 15 0 0 1-1.19 1.41 38.54 38.54 0 0 0-2.12-3.92zM90.74 239.44a42.5 42.5 0 0 0 1.2 6.73 20 20 0 0 0-14.58-.31c-11.57 4.39-16.68 19.22-11.42 33.14a50.4 50.4 0 0 0 6.92 12.07c-7.24-5.25-16.13-6.64-23.38-3.08a46 46 0 0 1-4.74-9c-5.27-13.9-.16-28.73 11.42-33.12a20 20 0 0 1 14.58.31 42.57 42.57 0 0 1-1.21-6.73c-1.32-14.8 7.6-27.7 19.93-28.8a19.59 19.59 0 0 1 12.34 3.12c-7.43 4.86-12.03 14.75-11.06 25.67z"/><path class="cls-6" d="M51.66 291.05a28.88 28.88 0 0 0-3.66-2.26 15.66 15.66 0 0 1 1.5-.82c.66 1.03 1.39 2.03 2.16 3.08z"/><path d="M397 220.64A313.24 313.24 0 0 0 275.16 196h-74.11A134.89 134.89 0 0 0 66.16 330.85H338.6l.79 1.78h109.19v-34.26A84.38 84.38 0 0 0 397 220.64z" style="fill:#c27135"/><circle class="cls-8" cx="212.78" cy="259.26" r="13.36"/><circle class="cls-8" cx="265.38" cy="226.13" r="8.27"/><circle class="cls-8" cx="172.45" cy="299.34" r="8.27"/><circle class="cls-8" cx="230.2" cy="307.6" r="8.27"/><circle class="cls-8" cx="324.87" cy="211.63" r="8.27"/><path class="cls-8" d="M275.16 196h-74.11A135 135 0 0 0 69.87 299.34h-8a16.75 16.75 0 0 0-16.75 16.75v15.26h42v-.5h58.27A134.87 134.87 0 0 1 278.74 196z"/><circle class="cls-1" cx="161.56" cy="317.07" r="14.91"/><path class="cls-9" d="M166.62 331.1a14.91 14.91 0 1 1 0-28.06 14.92 14.92 0 0 0 0 28.06z"/><circle class="cls-10" cx="166.62" cy="313.88" r="5.06"/><circle class="cls-1" cx="237.92" cy="317.07" r="14.91"/><path class="cls-9" d="M243 331.1a14.91 14.91 0 1 1 0-28.1 14.92 14.92 0 0 0 0 28.06z"/><circle class="cls-10" cx="242.98" cy="313.88" r="5.06"/><path class="cls-11" d="M376.22 226.13q-2.67 1.44-5.12 3.09c-2-.59-4.12-1.11-6.25-1.55a109 109 0 0 1 11.37-1.54z"/><circle class="cls-12" cx="88.06" cy="311.69" r="19.64"/><path class="cls-13" d="M93.78 330.28a19.65 19.65 0 1 1 0-37.17 19.64 19.64 0 0 0 0 37.17z"/><circle class="cls-14" cx="95.5" cy="308.57" r="6.48"/><circle class="cls-12" cx="448.9" cy="311.69" r="19.64"/><path class="cls-13" d="M454.62 330.28a19.65 19.65 0 1 1 0-37.17 19.64 19.64 0 0 0 0 37.17z"/><circle class="cls-14" cx="456.35" cy="308.57" r="6.48"/><circle class="cls-12" cx="413.28" cy="315.34" r="16"/><path class="cls-13" d="M417.93 330.48a16 16 0 1 1 0-30.28 16 16 0 0 0 0 30.28z"/><circle class="cls-14" cx="419.34" cy="312.79" r="5.28"/><circle class="cls-12" cx="118.52" cy="315.34" r="16"/><path class="cls-13" d="M123.17 330.48a16 16 0 1 1 0-30.28 16 16 0 0 0 0 30.28z"/><circle class="cls-14" cx="124.58" cy="312.79" r="5.28"/><path d="M432.64 382.64H79A58 58 0 0 1 21.34 331h469a58 58 0 0 1-57.7 51.64z" style="fill:#fff"/><path d="M191.91 382.64H79A58 58 0 0 1 21.34 331h112.92a58 58 0 0 0 57.65 51.64z" style="fill:#d4d6d6"/><path d="M90 382.64h331.6v8.66a16.89 16.89 0 0 1-16.89 16.89H106.93A16.89 16.89 0 0 1 90 391.3v-8.66z" style="fill:#c2c2c2"/><path d="M483.57 210.25a13.3 13.3 0 1 0-24.14.33l-38.34 18.29 13.55 19.36 34.92-18.34a13.29 13.29 0 1 0 14-19.64z" style="fill:#f0c788"/><path d="M447.45 241.2c-5.66-18.86-31.12-27.89-56.87-20.16a63.79 63.79 0 0 0-17.41 8.19c-16-4.7-35.25-4.7-54.59 1.1-41.95 12.59-68.47 47.71-59.25 78.44S310 354.22 352 341.63c30.23-9.08 52.45-29.86 59.05-52.27 25.78-7.74 42.06-29.29 36.4-48.16z" style="fill:#d5884d"/><path class="cls-11" d="M294.74 308.78c5.52 18.35 22.55 31 44.3 35.51-38 7.26-73.35-7.45-81.77-35.51-9.27-30.78 17.29-65.86 59.25-78.45 16.88-5.07 33.67-5.71 48.33-2.66a106.44 106.44 0 0 0-10.85 2.66c-41.95 12.59-68.48 47.67-59.26 78.45z"/><circle class="cls-11" cx="402.11" cy="250.99" r="8.27"/><circle class="cls-11" cx="324.87" cy="275.97" r="8.27"/><circle class="cls-11" cx="358.16" cy="307.6" r="12.38"/><path class="cls-20" d="M249.34 0s-30.42 25.89 0 85.49c0 0 29.58 44.31 0 75.2 0 0 20.27-10 25.42-39.24a71.7 71.7 0 0 0-8.39-47.6C257.06 57.39 242.79 26.36 249.34 0zM312.22 14.5s-30.42 25.89 0 85.49c0 0 29.58 44.31 0 75.2 0 0 20.27-10 25.42-39.24a71.7 71.7 0 0 0-8.39-47.6c-9.31-16.46-23.58-47.49-17.03-73.85zM185.65 14.5s-30.42 25.89 0 85.49c0 0 29.57 44.31 0 75.2 0 0 20.27-10 25.42-39.24a71.64 71.64 0 0 0-8.4-47.6c-9.3-16.46-23.57-47.49-17.02-73.85z"/><path d="M461.86 408.19a256 256 0 0 1-411.72 0z" style="fill:#9b112e"/></g></svg>