<svg xmlns="http://www.w3.org/2000/svg" viewBox="0 0 256 256" style="enable-background:new 0 0 256 256" xml:space="preserve"><style>.st1{fill:#fc657e}.st4{fill:#fcdd86}.st5{fill:#f5c84c}.st7{fill:#70d6f9}.st10{fill:#b2e26d}.st24{fill:#aa6f59}.st26{fill:#fcc29a}</style><g id="Layer_25"><path class="st24" d="M119.194 164.295h-17.969a4.251 4.251 0 0 0-4.239 4.238v8.217c0 1.356.657 2.555 1.656 3.333.15-.007.298-.023.451-.023h44.224l-24.123-15.765zM229.51 164.295h-17.969l-24.122 15.765h44.224c.152 0 .3.016.451.023.999-.777 1.656-1.976 1.656-3.333v-8.217a4.253 4.253 0 0 0-4.24-4.238z"/><path class="st26" d="M195.306 88.138h-59.877c-25.473 0-46.122 20.65-46.122 46.122 0 5.404 4.381 9.786 9.786 9.786h132.55c5.404 0 9.786-4.381 9.786-9.786-.001-25.472-20.651-46.122-46.123-46.122z"/><path class="st10" d="M233.421 143.876a9.843 9.843 0 0 1-1.779.169H99.092a9.834 9.834 0 0 1-1.779-.169 9.752 9.752 0 0 0-.323 2.197c-.158 5.702 4.418 10.375 10.085 10.375 2.52 0 4.823-.925 6.591-2.453a2.665 2.665 0 0 1 3.473 0 10.046 10.046 0 0 0 6.591 2.454c2.52 0 4.823-.925 6.591-2.453a2.663 2.663 0 0 1 3.472 0c1.768 1.528 4.071 2.453 6.591 2.453s4.824-.925 6.591-2.453a2.663 2.663 0 0 1 3.472 0c1.768 1.528 4.071 2.453 6.591 2.453s4.823-.925 6.591-2.453a2.665 2.665 0 0 1 3.473 0 10.045 10.045 0 0 0 6.591 2.453c2.52 0 4.823-.925 6.591-2.453a2.665 2.665 0 0 1 3.473 0 10.045 10.045 0 0 0 6.591 2.453c2.52 0 4.823-.925 6.591-2.453a2.663 2.663 0 0 1 3.472 0c1.768 1.528 4.071 2.453 6.591 2.453s4.823-.925 6.591-2.453a2.665 2.665 0 0 1 3.473 0 10.045 10.045 0 0 0 6.591 2.453c5.667 0 10.243-4.672 10.085-10.375a9.538 9.538 0 0 0-.321-2.198z"/><path class="st5" d="M217.068 153.995a2.665 2.665 0 0 0-3.473 0c-1.768 1.528-4.071 2.453-6.591 2.453s-4.824-.925-6.591-2.453a2.663 2.663 0 0 0-3.472 0 10.045 10.045 0 0 1-6.591 2.453 10.04 10.04 0 0 1-6.591-2.453 2.665 2.665 0 0 0-3.473 0 10.045 10.045 0 0 1-6.591 2.453c-2.52 0-4.824-.925-6.591-2.453a2.665 2.665 0 0 0-3.473 0c-1.768 1.528-4.071 2.453-6.591 2.453s-4.824-.925-6.591-2.453a2.663 2.663 0 0 0-3.472 0c-1.768 1.528-4.071 2.453-6.591 2.453s-4.824-.925-6.591-2.453a2.663 2.663 0 0 0-3.472 0 10.045 10.045 0 0 1-6.591 2.453c-2.52 0-4.824-.925-6.591-2.454a2.665 2.665 0 0 0-3.473 0 10.042 10.042 0 0 1-6.486 2.449l48.215 31.511a18.228 18.228 0 0 0 19.945 0l48.214-31.511a10.04 10.04 0 0 1-6.488-2.448z"/><path class="st26" d="M155.974 214.812H23.424c-5.404 0-9.785 4.381-9.785 9.786v.193c.041 9.989 8.364 17.975 18.353 17.975h115.415c9.989 0 18.312-7.986 18.353-17.975v-.193a9.786 9.786 0 0 0-9.786-9.786z"/><path class="st1" d="M136.193 195.823H43.206c-10.798 0-19.706 8.426-20.518 19.025.244-.018.488-.037.737-.037h132.55c.249 0 .493.019.737.037-.813-10.598-9.721-19.025-20.519-19.025z"/><path class="st26" d="M231.642 180.06h-44.224l-12.079 7.894a18.228 18.228 0 0 1-19.945 0l-12.078-7.894H99.092a9.786 9.786 0 0 0-9.786 9.786v.193c.008 2.03.374 3.97 1.01 5.784h45.875c8.333 0 15.523 5.028 18.752 12.191h68.129c9.989 0 18.312-7.986 18.353-17.975v-.193c.003-5.404-4.378-9.786-9.783-9.786z"/><path d="M113.777 63.195h-13.411c-1.876 0-3.571 1.167-4.189 2.939-1.642 4.71-6.131 8.114-11.382 8.114H39.578c-5.252 0-9.741-3.404-11.382-8.114-.618-1.772-2.313-2.939-4.189-2.939h-13.41c-4.7 0-8.412 3.989-8.075 8.677l8.697 120.888a10.887 10.887 0 0 0 10.859 10.106h5.677c3.777-4.307 9.305-7.042 15.451-7.042h47.112a17.617 17.617 0 0 1-1.01-5.784v-.193c0-5.252 4.141-9.526 9.335-9.763-.999-.777-1.656-1.976-1.656-3.333v-8.217a4.25 4.25 0 0 1 4.239-4.238h13.978l.179-2.491-8.202-5.36c-.035 0-.07.005-.105.005-5.667 0-10.242-4.672-10.085-10.375a9.76 9.76 0 0 1 .323-2.197c-4.554-.838-8.006-4.82-8.006-9.616 0-20.247 13.052-37.434 31.196-43.639l1.349-18.749c.336-4.69-3.376-8.679-8.076-8.679z" style="fill:#edf4fc"/><path class="st4" d="M109.603 37.034h-8.461a1.939 1.939 0 0 0-1.939 1.939v24.386a4.462 4.462 0 0 1 1.163-.164h11.175V38.973a1.937 1.937 0 0 0-1.938-1.939zM97.264 48.687h-8.461a1.939 1.939 0 0 0-1.939 1.939v23.438c4.336-.759 7.892-3.853 9.313-7.93.486-1.394 1.642-2.403 3.025-2.775V50.626a1.937 1.937 0 0 0-1.938-1.939zM84.925 37.034h-8.461a1.939 1.939 0 0 0-1.939 1.939v35.275h10.27c.706 0 1.396-.066 2.069-.184V38.973a1.939 1.939 0 0 0-1.939-1.939zM72.586 18.583h-8.461a1.939 1.939 0 0 0-1.939 1.939v53.726h12.339V20.522a1.939 1.939 0 0 0-1.939-1.939z"/><path class="st4" d="M60.248 26.352h-8.461a1.939 1.939 0 0 0-1.939 1.939v45.958h12.339V28.291a1.939 1.939 0 0 0-1.939-1.939zM47.909 38.005h-8.461a1.939 1.939 0 0 0-1.939 1.939v34.12c.673.118 1.363.184 2.069.184h10.27V39.944a1.939 1.939 0 0 0-1.939-1.939zM35.57 26.352h-8.461a1.939 1.939 0 0 0-1.939 1.939v35.068c1.383.372 2.539 1.381 3.026 2.775 1.421 4.077 4.977 7.171 9.313 7.93V28.291a1.939 1.939 0 0 0-1.939-1.939zM23.231 38.005H14.77a1.939 1.939 0 0 0-1.939 1.939v23.251h11.175c.4 0 .789.063 1.163.164V39.944a1.937 1.937 0 0 0-1.938-1.939z"/><path class="st1" d="M98.164 63.785a4.344 4.344 0 0 0-1.986 2.349c-2.969 8.519-11.7 8.094-11.801 8.114v45.697c2.537 1.231 4.593 2.674 6.038 4.263a45.97 45.97 0 0 1 10.731-20.782V63.195c-.462.075-1.509-.242-2.982.59zM101.146 164.303v-9.791c-2.589-1.886-4.252-4.968-4.156-8.438a9.76 9.76 0 0 1 .323-2.197 9.791 9.791 0 0 1-7.851-7.875c-1.347 1.218-3.062 2.334-5.085 3.316v56.505h5.941a17.617 17.617 0 0 1-1.01-5.784v-.193c0-5.252 4.141-9.526 9.335-9.763-.999-.777-1.656-1.976-1.656-3.333v-8.217a4.246 4.246 0 0 1 4.159-4.23zM53.802 74.248v41.842a65.36 65.36 0 0 1 16.77 0V74.248h-16.77zM62.187 143.713c-2.909 0-5.719-.191-8.385-.54v52.651h16.77v-52.651c-2.666.349-5.477.54-8.385.54zM39.996 119.945V74.248c-.1-.033-8.795.51-11.801-8.114-1.18-3.384-4.869-2.909-4.969-2.939v139.671h4.528c3.106-3.542 7.397-6.017 12.242-6.786v-56.762c-5.202-2.524-8.4-5.932-8.4-9.686s3.198-7.163 8.4-9.687z"/><path class="st7" d="M89.307 134.26c0-3.456.389-6.82 1.11-10.058-4.618-5.081-15.517-8.651-28.23-8.651-16.894 0-30.59 6.304-30.59 14.081s13.696 14.081 30.59 14.081c11.91 0 22.223-3.135 27.276-7.709a9.728 9.728 0 0 1-.156-1.744z"/><path d="M195.306 85.638h-59.877c-26.811 0-48.622 21.812-48.622 48.622 0 6.774 5.511 12.286 12.285 12.286h132.551c6.774 0 12.285-5.511 12.285-12.286 0-26.81-21.812-48.622-48.622-48.622zm36.337 55.908H99.092c-4.017 0-7.285-3.269-7.285-7.286 0-24.053 19.568-43.622 43.622-43.622h59.877c24.054 0 43.622 19.569 43.622 43.622 0 4.017-3.269 7.286-7.285 7.286z"/><path d="M236.016 144.006a2.501 2.501 0 0 0-4.904.977c.079.393.123.782.134 1.159a7.531 7.531 0 0 1-2.145 5.507 7.531 7.531 0 0 1-5.441 2.298c-1.82 0-3.58-.655-4.956-1.845a5.181 5.181 0 0 0-6.742 0 7.583 7.583 0 0 1-9.913 0c-1.92-1.661-4.82-1.661-6.742 0a7.583 7.583 0 0 1-9.913-.001c-1.922-1.66-4.821-1.659-6.741.001a7.578 7.578 0 0 1-9.913 0 5.181 5.181 0 0 0-6.742 0 7.583 7.583 0 0 1-9.913 0 5.181 5.181 0 0 0-6.742 0 7.583 7.583 0 0 1-9.912 0 5.181 5.181 0 0 0-6.742 0 7.578 7.578 0 0 1-9.913 0 5.181 5.181 0 0 0-6.742 0 7.583 7.583 0 0 1-4.956 1.845 7.531 7.531 0 0 1-5.441-2.298 7.541 7.541 0 0 1-2.145-5.51c.01-.38.057-.778.139-1.182a2.5 2.5 0 0 0-4.9-.993 11.856 11.856 0 0 0-.236 2.04 12.496 12.496 0 0 0 3.559 9.132 12.495 12.495 0 0 0 9.025 3.812c3.021 0 5.942-1.087 8.226-3.063a.167.167 0 0 1 .203 0 12.577 12.577 0 0 0 16.453 0 .167.167 0 0 1 .203 0 12.577 12.577 0 0 0 16.452 0 .167.167 0 0 1 .203 0 12.577 12.577 0 0 0 16.453 0 .167.167 0 0 1 .203 0 12.577 12.577 0 0 0 16.453 0 .165.165 0 0 1 .203 0 12.577 12.577 0 0 0 16.451.001.165.165 0 0 1 .204-.001 12.577 12.577 0 0 0 16.453 0 .167.167 0 0 1 .203 0 12.577 12.577 0 0 0 8.226 3.063c3.429 0 6.634-1.354 9.025-3.812a12.502 12.502 0 0 0 3.559-9.131 13.022 13.022 0 0 0-.236-1.999z"/><path d="M225.273 155.32a2.5 2.5 0 0 0-3.461-.725l-47.84 31.267a15.728 15.728 0 0 1-17.21 0l-47.826-31.258a2.5 2.5 0 1 0-2.736 4.185l47.827 31.258c3.444 2.251 7.392 3.376 11.34 3.376s7.896-1.125 11.341-3.376l47.841-31.267a2.5 2.5 0 0 0 .724-3.46z"/><path d="M118.833 161.795h-17.608a6.745 6.745 0 0 0-6.738 6.738v8.218c0 1.865.8 3.668 2.195 4.946.479.44 1.085.657 1.688.657a2.5 2.5 0 0 0 1.69-4.343c-.214-.196-.572-.62-.572-1.259v-8.218c0-.942.796-1.738 1.738-1.738h17.608a2.5 2.5 0 1 0-.001-5.001zM229.51 161.795h-17.663a2.5 2.5 0 1 0 0 5h17.663c.942 0 1.738.796 1.738 1.738v8.218c0 .673-.392 1.107-.625 1.306a2.5 2.5 0 1 0 3.242 3.806 6.716 6.716 0 0 0 2.383-5.113v-8.218a6.745 6.745 0 0 0-6.738-6.737zM155.975 212.312H23.425c-6.774 0-12.286 5.511-12.286 12.286l.001.204c.046 11.284 9.4 20.465 20.853 20.465h115.415c11.452 0 20.807-9.181 20.853-20.475v-.193c-.001-6.776-5.512-12.287-12.286-12.287zm7.285 12.468c-.035 8.539-7.146 15.485-15.853 15.485H31.992c-8.706 0-15.817-6.947-15.853-15.513l-.001-.155c0-4.017 3.269-7.286 7.286-7.286h132.55c4.017 0 7.285 3.269 7.285 7.286v.183z"/><path d="M136.193 193.323H43.206c-11.986 0-22.094 9.371-23.012 21.334a2.513 2.513 0 0 0 .741 1.955 2.551 2.551 0 0 0 1.972.727c.172-.013.343-.028.518-.028h132.55c.175 0 .346.015.553.03a2.502 2.502 0 0 0 2.678-2.685c-.92-11.962-11.027-21.333-23.013-21.333zM25.602 212.312c1.885-8.032 9.148-13.988 17.604-13.988h92.987c8.456 0 15.719 5.957 17.604 13.988H25.602z"/><path d="M135.418 191.101a2.503 2.503 0 0 0-3.219 1.463l-3.363 8.968a2.5 2.5 0 0 0 4.682 1.756l3.363-8.968a2.5 2.5 0 0 0-1.463-3.219zM121.218 191.101a2.502 2.502 0 0 0-3.219 1.463l-3.362 8.968a2.5 2.5 0 0 0 4.682 1.755l3.362-8.968a2.5 2.5 0 0 0-1.463-3.218zM107.019 191.101a2.502 2.502 0 0 0-3.219 1.463l-3.363 8.968a2.5 2.5 0 0 0 4.682 1.756l3.363-8.968a2.5 2.5 0 0 0-1.463-3.219zM92.819 191.101a2.502 2.502 0 0 0-3.219 1.463l-3.363 8.968a2.5 2.5 0 0 0 4.682 1.756l3.363-8.968a2.5 2.5 0 0 0-1.463-3.219zM78.62 191.101a2.502 2.502 0 0 0-3.219 1.463l-3.363 8.968a2.5 2.5 0 0 0 4.682 1.756l3.363-8.968a2.5 2.5 0 0 0-1.463-3.219zM64.421 191.101a2.502 2.502 0 0 0-3.219 1.463l-3.363 8.968a2.5 2.5 0 0 0 4.682 1.756l3.363-8.968a2.5 2.5 0 0 0-1.463-3.219zM50.221 191.101a2.502 2.502 0 0 0-3.219 1.463l-3.362 8.968a2.5 2.5 0 0 0 4.682 1.755l3.362-8.968a2.5 2.5 0 0 0-1.463-3.218zM231.643 177.561h-43.351a2.5 2.5 0 1 0 0 5h43.351c4.017 0 7.285 3.269 7.285 7.286v.183c-.036 8.539-7.147 15.485-15.854 15.485h-67.512a2.5 2.5 0 1 0 0 5h67.512c11.451 0 20.806-9.18 20.854-20.475v-.194c0-6.774-5.511-12.285-12.285-12.285z"/><path d="M142.792 177.561h-43.7c-6.774 0-12.285 5.511-12.285 12.286v.204a20.14 20.14 0 0 0 .987 6.114 2.5 2.5 0 0 0 4.758-1.54 15.11 15.11 0 0 1-.745-4.584v-.193c0-4.017 3.269-7.286 7.285-7.286h43.7a2.5 2.5 0 1 0 0-5.001zM121.534 64.073a10.63 10.63 0 0 0-7.757-3.378h-13.411c-2.955 0-5.587 1.855-6.549 4.616-1.342 3.85-4.968 6.437-9.022 6.437H39.578c-4.055 0-7.68-2.586-9.021-6.438-.963-2.76-3.596-4.615-6.55-4.615h-13.41a10.629 10.629 0 0 0-7.756 3.377 10.63 10.63 0 0 0-2.813 7.979l8.697 120.888c.5 6.968 6.365 12.426 13.352 12.426h4.892a2.5 2.5 0 1 0 0-5h-4.892c-4.377 0-8.051-3.419-8.365-7.785L5.015 71.693A5.539 5.539 0 0 1 6.5 67.479a5.539 5.539 0 0 1 4.097-1.783h13.41c.831 0 1.565.507 1.828 1.261 2.04 5.857 7.563 9.792 13.743 9.792h45.217c6.18 0 11.702-3.935 13.743-9.792.264-.754.998-1.261 1.828-1.261h13.411a5.54 5.54 0 0 1 4.097 1.784 5.542 5.542 0 0 1 1.484 4.214l-1.323 18.402a2.5 2.5 0 1 0 4.986.359l1.323-18.402a10.625 10.625 0 0 0-2.81-7.98z"/><path d="M109.603 34.534h-8.461a4.444 4.444 0 0 0-4.438 4.439v23.944a2.5 2.5 0 1 0 5 0V39.534h7.339v23.232a2.5 2.5 0 1 0 5 0V38.973a4.445 4.445 0 0 0-4.44-4.439z"/><path d="M97.264 46.187h-8.461a4.443 4.443 0 0 0-4.438 4.439 2.5 2.5 0 0 0 4.937.561h7.466a2.501 2.501 0 0 0 4.937-.561 4.447 4.447 0 0 0-4.441-4.439z"/><path d="M84.925 34.534h-8.46a4.444 4.444 0 0 0-4.439 4.439 2.5 2.5 0 0 0 4.937.561h7.402v34.07a2.5 2.5 0 1 0 5 0v-34.63a4.445 4.445 0 0 0-4.44-4.44z"/><path d="M72.586 16.083h-8.46a4.444 4.444 0 0 0-4.439 4.439V73.5a2.5 2.5 0 1 0 5 0V21.083h7.339v52.636a2.5 2.5 0 1 0 5 0V20.522a4.445 4.445 0 0 0-4.44-4.439z"/><path d="M60.248 23.852h-8.461a4.444 4.444 0 0 0-4.439 4.439V73.5a2.5 2.5 0 1 0 5 0V28.852h7.402a2.501 2.501 0 0 0 4.937-.561 4.444 4.444 0 0 0-4.439-4.439z"/><path d="M47.909 35.505h-8.461a4.418 4.418 0 0 0-4.438 4.309 2.5 2.5 0 0 0 2.427 2.571c1.157.015 2.213-.771 2.495-1.88h7.479a2.501 2.501 0 0 0 4.937-.561 4.444 4.444 0 0 0-4.439-4.439z"/><path d="M35.57 23.852h-8.461a4.444 4.444 0 0 0-4.439 4.439v34.631a2.5 2.5 0 1 0 5 0v-34.07h7.339v44.837a2.5 2.5 0 1 0 5 0V28.291a4.444 4.444 0 0 0-4.439-4.439z"/><path d="M23.231 35.505H14.77a4.443 4.443 0 0 0-4.438 4.439v22.431a2.5 2.5 0 1 0 5 0v-21.87h7.401a2.501 2.501 0 0 0 4.937-.561 4.444 4.444 0 0 0-4.439-4.439zM84.377 72.667a2.5 2.5 0 0 0-2.5 2.5v44.114a2.5 2.5 0 1 0 5 0V75.167a2.5 2.5 0 0 0-2.5-2.5zM101.146 61.542a2.5 2.5 0 0 0-2.5 2.5v38.395a2.5 2.5 0 1 0 5 0V64.042a2.5 2.5 0 0 0-2.5-2.5zM101.146 152.938a2.5 2.5 0 0 0-2.5 2.5v8.103a2.5 2.5 0 1 0 5 0v-8.103a2.5 2.5 0 0 0-2.5-2.5zM84.377 137.583a2.5 2.5 0 0 0-2.5 2.5v55.042a2.5 2.5 0 1 0 5 0v-55.042a2.5 2.5 0 0 0-2.5-2.5zM53.802 72.375a2.5 2.5 0 0 0-2.5 2.5v40.676a2.5 2.5 0 1 0 5 0V74.875a2.5 2.5 0 0 0-2.5-2.5zM70.571 72.313a2.5 2.5 0 0 0-2.5 2.5v40.437a2.5 2.5 0 1 0 5 0V74.813a2.5 2.5 0 0 0-2.5-2.5zM53.802 141.667a2.5 2.5 0 0 0-2.5 2.5v51.083a2.5 2.5 0 1 0 5 0v-51.083a2.5 2.5 0 0 0-2.5-2.5zM70.571 141.213a2.5 2.5 0 0 0-2.5 2.5v51.443a2.5 2.5 0 1 0 5 0v-51.443a2.5 2.5 0 0 0-2.5-2.5zM39.996 138a2.5 2.5 0 0 0-2.5 2.5v55.031a2.5 2.5 0 1 0 5 0V140.5a2.5 2.5 0 0 0-2.5-2.5zM39.996 72.229a2.5 2.5 0 0 0-2.5 2.5v44.208a2.5 2.5 0 1 0 5 0V74.729a2.5 2.5 0 0 0-2.5-2.5zM23.227 61.125a2.5 2.5 0 0 0-2.5 2.5v138.938a2.5 2.5 0 1 0 5 0V63.625a2.5 2.5 0 0 0-2.5-2.5z"/><path d="M62.187 118.051c11.196 0 21.689 3.034 26.112 7.55a2.5 2.5 0 1 0 3.572-3.499c-5.468-5.583-16.843-9.051-29.685-9.051-18.555 0-33.09 7.283-33.09 16.581s14.535 16.581 33.09 16.581c11.73 0 22.627-3.029 28.438-7.906a2.5 2.5 0 0 0-3.214-3.83c-4.95 4.155-14.616 6.736-25.224 6.736-16.554 0-28.09-6.104-28.09-11.581s11.537-11.581 28.091-11.581z"/><path class="st5" d="M138.983 31.371c-4.498-.838-8.043-4.31-8.898-8.716a.2.2 0 0 0-.395 0c-.855 4.406-4.4 7.879-8.898 8.716a.195.195 0 0 0 0 .387c4.498.838 8.042 4.31 8.898 8.717a.2.2 0 0 0 .395 0c.855-4.406 4.4-7.879 8.898-8.717a.195.195 0 0 0 0-.387z"/><path class="st7" d="M255.844 95.48c-4.126-.768-7.379-3.955-8.163-7.997-.04-.203-.323-.203-.362 0-.784 4.043-4.037 7.229-8.163 7.997a.18.18 0 0 0 0 .355c4.127.769 7.379 3.955 8.163 7.997.04.203.323.203.362 0 .784-4.043 4.037-7.229 8.163-7.997a.179.179 0 0 0 0-.355z"/><path class="st10" d="M193.694 229.976h-2.329v-2.33a3.156 3.156 0 1 0-6.314 0v2.33h-2.33a3.156 3.156 0 1 0 0 6.314h2.33v2.33a3.156 3.156 0 1 0 6.314 0v-2.33h2.329a3.156 3.156 0 1 0 0-6.314z"/><path class="st1" d="M108.999 10.734a3.377 3.377 0 1 0 0 6.754 3.377 3.377 0 0 0 0-6.754z"/><path class="st5" d="M206.999 217.734a3.377 3.377 0 1 0 0 6.754 3.377 3.377 0 0 0 0-6.754z"/></g></svg>