<svg xmlns="http://www.w3.org/2000/svg" xml:space="preserve" width="2048" height="2048" style="shape-rendering:geometricPrecision;text-rendering:geometricPrecision;image-rendering:optimizeQuality;fill-rule:evenodd;clip-rule:evenodd"><defs><clipPath id="id0"><path d="M1024-.001c565.541 0 1024 458.46 1024 1024s-458.461 1024-1024 1024c-565.541 0-1024-458.461-1024-1024 0-565.541 458.461-1024 1024-1024z"/></clipPath><style>.fil1{fill:#512da8}.fil3,.fil4{fill:#e6e6e5;fill-rule:nonzero}.fil3{fill:#fffffe}</style></defs><g id="Layer_x0020_1"><path d="M1024-.001c565.541 0 1024 458.46 1024 1024s-458.461 1024-1024 1024c-565.541 0-1024-458.461-1024-1024 0-565.541 458.461-1024 1024-1024z" style="fill:#7e57c2"/><g style="clip-path:url(#id0)"><g id="_517129624"><path id="_4980812001" class="fil1" d="M1620.81 1609.5zM484.93 473.62z"/><path id="_498081776" class="fil1" d="M1235.52 558.308 2371.4 1694.19l1.15 1.89.7 2.27.31 2.62-.05 2.97-.36 3.31-.64 3.64-.88 3.96-1.07 4.27-1.22 4.58-1.34 4.87-1.41 5.16-1.44 5.43-1.44 5.7-1.38 5.96-1.3 6.2-1.17 6.45-1 6.67-.79 6.9-.54 7.11-.25 7.31.09 7.5.45 7.69.87 7.87 1.32 8.03 1.82 8.19 2.34 8.33 2.92 8.48 3.54 8.6 4.19 8.73 4.89 8.83 5.62 8.94L1249.45 746.768l-5.63-8.939-4.88-8.836-4.19-8.724-3.54-8.605-2.92-8.474-2.35-8.336-1.81-8.188-1.32-8.031-.87-7.864-.45-7.69-.09-7.505.25-7.311.54-7.108.79-6.896 1-6.676 1.17-6.445 1.3-6.206 1.38-5.957 1.44-5.699 1.44-5.433 1.41-5.157 1.34-4.872 1.22-4.578 1.07-4.273.87-3.961.64-3.641.37-3.309.05-2.969-.31-2.621-.71-2.262z"/><path id="_498081752" class="fil1" d="M1125.84 671.086 2261.72 1806.97l.85.94.78 1.2.71 1.43.63 1.64.57 1.85.5 2.04.45 2.21.39 2.36.34 2.51.3 2.62.25 2.74.22 2.82.19 2.91.15 2.96.13 3.01.11 3.04.09 3.05.07 3.05.07 3.04.06 2.99.07 2.95.06 2.89.07 2.8.09 2.7.1 2.59.12 2.47.14 2.32.17 2.16.2 1.98.24 1.79.28 1.59L1134.24 745.737l-.28-1.585-.24-1.793-.2-1.983-.17-2.16-.15-2.32-.11-2.464-.1-2.592-.09-2.705-.07-2.802-.06-2.883-.07-2.949-.06-2.998-.07-3.032-.08-3.049-.09-3.053-.1-3.039-.13-3.01-.16-2.964-.18-2.903-.22-2.828-.25-2.735-.3-2.627-.34-2.503-.39-2.363-.45-2.208-.51-2.037-.56-1.85-.64-1.648-.7-1.429-.78-1.194z"/><path id="_498081152" class="fil1" d="M712.39 770.365 1848.27 1906.25l-1.09.88L711.302 771.245z"/><path id="_498081248" class="fil1" d="m1272.79 1526.63 1135.88 1135.89v.02L1272.79 1526.66z"/><path id="_498082016" class="fil1" d="m1272.79 1526.66 1135.88 1135.88v32.86L1272.79 1559.52z"/><path id="_498082280" class="fil1" d="M1272.79 1559.52 2408.67 2695.4l-.13 2.5-.37 2.43-.6 2.35-.82 2.25-1.04 2.14-1.22 2.02-1.41 1.88-1.58 1.74-1.74 1.58-1.89 1.41-2.02 1.23-2.14 1.03-2.24.82-2.35.61-2.43.37-2.51.12L1248.3 1584l2.51-.13 2.43-.37 2.34-.6 2.25-.82 2.14-1.04 2.02-1.22 1.89-1.41 1.74-1.58 1.58-1.74 1.41-1.89 1.22-2.01 1.03-2.14.83-2.25.6-2.35.37-2.43z"/><path id="_498081824" class="fil1" d="m1248.3 1584 1135.88 1135.88h-220.35L1027.94 1584z"/><path id="_498082136" class="fil1" d="M783.102 1526.63 1918.98 2662.52l-8.38-4.26-8.29-4.39-8.21-4.53-8.13-4.66-8.03-4.8-7.95-4.93-7.86-5.05-7.77-5.19-7.67-5.31-7.57-5.44-7.48-5.57-7.39-5.68-7.28-5.81-7.18-5.93-7.08-6.05L666.831 1449.04l7.078 6.05 7.181 5.92 7.283 5.81 7.382 5.69 7.48 5.56 7.577 5.44 7.671 5.32 7.766 5.18 7.857 5.06 7.949 4.93 8.038 4.8 8.125 4.66 8.211 4.53 8.294 4.39z"/><path id="_498081944" class="fil1" d="M807.586 1584 1943.47 2719.88l-2.51-.12-2.43-.37-2.34-.61-2.25-.82-2.14-1.03-2.02-1.23-1.89-1.41L792.012 1578.41l1.885 1.41 2.019 1.22 2.14 1.04 2.249.82 2.347.6 2.431.37z"/><path id="_498082064" class="fil1" d="m1027.94 1584 1135.89 1135.88h-220.36L807.586 1584z"/><path id="_498082112" class="fil1" d="M711.302 771.245 1847.18 1907.13l-3.03-2.79-2.91-2.49-2.81-2.21-2.71-1.97-2.63-1.74-2.56-1.54-2.49-1.37-2.45-1.23-2.4-1.1-2.38-1-2.35-.93-2.35-.89-2.35-.86-2.36-.87-2.39-.9-2.43-.95-2.46-1.03-2.53-1.14-2.59-1.27-2.67-1.43-2.76-1.61-2.86-1.82-2.96-2.05-3.09-2.31-3.22-2.59-3.36-2.9-3.52-3.23-3.68-3.59L634.999 723.434l3.679 3.593 3.516 3.234 3.363 2.899 3.219 2.592 3.089 2.306 2.968 2.051 2.858 1.816 2.758 1.61 2.67 1.428 2.592 1.271 2.525 1.14 2.468 1.033 2.423.955 2.387.897 2.365.87 2.35.863 2.347.886 2.356.93 2.374 1.003 2.405 1.101 2.445 1.221 2.496 1.37 2.558 1.544 2.629 1.741 2.714 1.965 2.808 2.215 2.912 2.488z"/><path id="_498082400" class="fil1" d="M544.369 476.548 1680.25 1612.43l1.55 1.6 1.46 1.7L547.383 479.849l-1.468-1.698z"/><path id="_498082088" class="fil1" d="M547.383 479.849 1683.26 1615.73l139.79 170.82L687.169 650.669z"/><path id="_498082520" class="fil1" d="M687.169 650.669 1823.05 1786.55l4.53 5.64 4.09 5.3 3.67 4.98 3.28 4.68 2.91 4.39 2.56 4.12 2.25 3.87 1.95 3.65 1.67 3.43 1.43 3.23 1.21 3.06 1.01 2.91.84 2.76.68 2.65.56 2.54.46 2.45.38 2.39.33 2.34.31 2.32.3 2.3.32 2.3.36 2.34.44 2.37.53 2.44.65 2.52.79 2.62.96 2.73 1.15 2.87 1.36 3.02 1.61 3.19 1.87 3.38 2.16 3.59L733.792 753.049l-2.16-3.589-1.872-3.382-1.606-3.192-1.367-3.022-1.149-2.867-.959-2.733-.791-2.617-.649-2.518-.53-2.437-.436-2.377-.366-2.333-.32-2.307-.3-2.301-.304-2.313-.33-2.342-.383-2.389-.46-2.457-.559-2.539-.687-2.644-.835-2.765-1.008-2.903-1.207-3.06-1.431-3.237-1.677-3.43-1.949-3.644-2.244-3.874-2.564-4.122-2.91-4.39-3.278-4.675-3.671-4.98-4.09-5.3z"/><path id="_498082568" class="fil1" d="M733.792 753.049 1869.67 1888.93l-1.19.97L732.597 754.016z"/><path id="_498083312" class="fil1" d="M732.597 754.016 1868.48 1889.9l.83 1.12.87 1.14.88 1.16.92 1.18.94 1.2.97 1.22 1 1.24 1.02 1.26L740.032 763.541l-1.026-1.262-.997-1.24-.97-1.22-.942-1.199-.915-1.18-.888-1.161-.861-1.141z"/><path id="_498083000" class="fil1" d="M740.032 763.541 1875.91 1899.42l64.09 77.88L804.122 841.416z"/><path id="_498082616" class="fil1" d="M977.12 878.904 2113 2014.79l2.77 2.83 2.74 2.91 2.69 2.98 2.64 3.04 2.6 3.12L990.561 893.783l-2.6-3.114-2.646-3.045-2.689-2.976-2.733-2.907z"/><path id="_498082712" class="fil1" d="M990.561 893.783 2126.44 2029.67l2.54 3.16 2.46 3.2 2.39 3.22 2.31 3.25 2.23 3.28 2.15 3.31 2.08 3.33 2 3.35 1.93 3.37 1.85 3.39 1.77 3.4 1.69 3.42 1.62 3.44 1.54 3.45 1.47 3.46 1.38 3.46 1.31 3.48 1.24 3.48 1.15 3.49 1.08 3.48 1 3.5.92 3.49.85 3.48.76 3.49.7 3.48.61 3.47.53 3.47.46 3.45.38 3.45.3 3.43.23 3.42.14 3.4-1135.88-1135.88-.15-3.405-.22-3.417-.3-3.432-.38-3.444-.46-3.456-.53-3.466-.62-3.473-.69-3.481-.76-3.484-.85-3.489-.92-3.49-1-3.49-1.08-3.489-1.16-3.486-1.23-3.482-1.31-3.475-1.38-3.467-1.47-3.459-1.54-3.448-1.62-3.435-1.69-3.422-1.77-3.406-1.85-3.389-1.93-3.369-2-3.351-2.08-3.328-2.15-3.305-2.23-3.28-2.314-3.253-2.386-3.225-2.461-3.196z"/><path id="_498082808" class="fil1" d="m1033.63 1002.74 1135.88 1135.88.02.74.02.73.02.74.01.74v.73l.01.74v.73l-.01.73L1033.7 1008.62v-2.2l-.01-.74-.01-.73-.01-.74-.02-.74z"/><path id="_498083168" class="fil1" d="M1492.22 1329.65 2628.1 2465.53l-5.1 7.83-5.23 7.73-5.36 7.63-5.48 7.55-5.61 7.44-5.73 7.35-5.85 7.24-5.96 7.15-6.09 7.04-6.2 6.93-6.32 6.83-6.43 6.73-6.54 6.61-6.65 6.5-6.77 6.39-6.86 6.28-6.98 6.16-7.08 6.05-7.18 5.93-7.28 5.81-7.38 5.68-7.48 5.57-7.58 5.44-7.67 5.31-7.77 5.19-7.85 5.05-7.95 4.93-8.04 4.8-8.13 4.66-8.21 4.53-8.29 4.39-8.38 4.26-1135.88-1135.89 8.38-4.25 8.29-4.39 8.21-4.53 8.13-4.66 8.04-4.8 7.94-4.93 7.86-5.06 7.77-5.18 7.67-5.32 7.58-5.44 7.48-5.56 7.38-5.69 7.28-5.81 7.18-5.92 7.08-6.05 6.97-6.16 6.87-6.28 6.76-6.39 6.66-6.5 6.54-6.62 6.43-6.72 6.32-6.83 6.2-6.94 6.09-7.04 5.96-7.14 5.85-7.25 5.73-7.34 5.61-7.45 5.48-7.54 5.36-7.64 5.23-7.73z"/><path id="_498082976" class="fil1" d="M1167.91 813.125 2303.79 1949.01l.48 4.33.21 4.46-.05 4.59-.29 4.69-.52 4.76-.73 4.83-.94 4.86-1.14 4.88-1.31 4.88-1.48 4.85-1.63 4.82-1.78 4.75-1.91 4.66-2.02 4.57-2.13 4.44-2.22 4.29-2.3 4.13-2.37 3.95-2.42 3.74-2.47 3.52-2.49 3.27-2.51 3-2.52 2.72-2.51 2.42-2.49 2.09-2.45 1.74-2.41 1.37-2.36.99-2.28.58-2.2.15-2.1-.3-2-.76L1112.57 920.397l2 .764 2.1.297 2.2-.153 2.28-.579 2.35-.987 2.42-1.375 2.45-1.74 2.49-2.087 2.51-2.415 2.51-2.72 2.52-3.006 2.49-3.271 2.47-3.516 2.42-3.742 2.37-3.947 2.3-4.132 2.22-4.294 2.13-4.44 2.02-4.563 1.91-4.667 1.78-4.75 1.63-4.813 1.48-4.855 1.31-4.878 1.14-4.88.94-4.863.73-4.824.52-4.765.29-4.687.04-4.588-.21-4.468z"/><path id="_498083024" class="fil1" d="M1134.24 745.737 2270.12 1881.62l.23 1.04.27 1.03.32 1.02.35 1.01.38.99.42.98.45.96.48.95.51.94.53.92.56.9.59.89.6.88.62.86.65.84.66.82L1141.86 760.771l-.66-.824-.65-.842-.62-.859-.61-.874-.58-.891-.56-.906-.54-.92-.5-.935-.48-.951-.45-.964-.42-.979-.39-.992-.35-1.005-.31-1.018-.27-1.031z"/><path id="_498083144" class="fil1" d="M1141.86 760.771 2277.74 1896.65l1.39 1.72 1.34 1.69 1.31 1.68 1.27 1.66 1.24 1.64 1.19 1.63 1.16 1.61 1.11 1.61 1.08 1.59 1.05 1.59 1 1.58.97 1.57.93 1.57.89 1.57.86 1.57.82 1.57.79 1.57.75 1.58.71 1.58.68 1.59.65 1.6.61 1.61.57 1.62.55 1.63.5 1.65.48 1.66.44 1.69.41 1.7.37 1.72.34 1.74.31 1.77.28 1.8L1167.91 813.125l-.28-1.794-.31-1.77-.34-1.744-.37-1.722-.41-1.702-.44-1.682-.48-1.664-.51-1.649-.54-1.632-.57-1.621-.61-1.607-.65-1.598-.68-1.59-.71-1.583-.75-1.575-.79-1.574-.82-1.569-.86-1.569-.89-1.57-.93-1.57-.97-1.575-1.01-1.58-1.04-1.586-1.08-1.595-1.12-1.605-1.15-1.615-1.19-1.628-1.24-1.642-1.27-1.658-1.31-1.676-1.35-1.694z"/><path id="_498083480" class="fil1" d="M1379.86 595.406 2515.74 1731.29l.86 1.73.38 2.08-.05 2.43-.45 2.76-.8 3.09-1.12 3.39-1.39 3.69-1.61 3.99-1.8 4.25-1.95 4.53-2.05 4.77-2.12 5.02-2.13 5.25-2.12 5.47-2.05 5.68-1.95 5.87-1.8 6.06-1.61 6.23-1.39 6.4-1.11 6.55-.8 6.69-.45 6.81-.05 6.94.38 7.04.87 7.13 1.39 7.22 1.94 7.29 2.56 7.35 3.19 7.4 3.89 7.43 4.61 7.47L1371.13 763.414l-4.61-7.463-3.89-7.437-3.2-7.399-2.55-7.35-1.95-7.29-1.38-7.217-.87-7.134-.38-7.041.05-6.933.45-6.817.8-6.688 1.11-6.548 1.39-6.396 1.61-6.233 1.8-6.06 1.95-5.874 2.05-5.678 2.11-5.468 2.14-5.25 2.11-5.019 2.06-4.776 1.94-4.522 1.81-4.258 1.61-3.982 1.39-3.693 1.12-3.395.8-3.083.45-2.762.05-2.429-.38-2.085z"/><path id="_498083864" class="fil1" d="M1249.45 746.768 2385.33 1882.65l1.43 2.18 1.42 2.21 1.4 2.23 1.37 2.27 1.35 2.29 1.32 2.32 1.3 2.35 1.28 2.38 1.24 2.41 1.22 2.43 1.19 2.47 1.16 2.49 1.13 2.52 1.1 2.55 1.06 2.58 1.03 2.61 1 2.63.95 2.66.92 2.69.89 2.72.84 2.75.8 2.78.77 2.8.71 2.83.68 2.86.63 2.89.59 2.91.54 2.94.5 2.98.44 2.99.4 3.03.34 3.05L1280.45 830.571l-.34-3.053-.4-3.026-.45-2.999-.49-2.971-.54-2.942-.59-2.915-.63-2.888-.68-2.858-.72-2.831-.76-2.804-.8-2.776-.84-2.747-.89-2.719-.92-2.69-.96-2.664-.99-2.633-1.03-2.607-1.06-2.579-1.1-2.55-1.13-2.52-1.16-2.493-1.19-2.465-1.22-2.436-1.24-2.408-1.28-2.379-1.3-2.35-1.32-2.322-1.35-2.293-1.38-2.265-1.39-2.235-1.42-2.207z"/><path id="_498084008" class="fil1" d="M1112.57 920.397 2248.45 2056.28l-.85-.43L1111.72 919.97z"/><path id="_498083840" class="fil1" d="M1280.45 830.571 2416.33 1966.45l.22 3.63-.06 3.93-.32 4.21-.57 4.45-.8 4.66-1.02 4.86-1.22 5.02-1.4 5.14-1.57 5.25-1.72 5.32-1.86 5.37-1.99 5.38-2.09 5.37-2.18 5.32-2.26 5.26-2.32 5.16-2.36 5.03-2.39 4.87-2.4 4.69-2.4 4.47-2.39 4.23-2.35 3.96-2.3 3.66-2.23 3.33-2.16 2.97-2.06 2.58-1.95 2.17-1.82 1.73-1.68 1.25-1.52.75-1.35.22-1.16-.33L1226.77 954.474l1.16.338 1.35-.221 1.52-.751 1.68-1.253 1.82-1.726 1.95-2.169 2.06-2.586 2.15-2.971 2.24-3.329 2.3-3.659 2.35-3.959 2.38-4.229 2.41-4.474 2.4-4.687 2.39-4.873 2.36-5.029 2.32-5.158 2.26-5.256 2.18-5.327 2.09-5.369 1.98-5.381 1.87-5.366 1.72-5.322 1.57-5.248 1.4-5.146 1.22-5.015 1.02-4.857.8-4.666.57-4.452.32-4.204.06-3.931z"/><path id="_498083720" class="fil1" d="M1343.46 930.304 2479.34 2066.19l-.43-.47L1343.03 929.842z"/><path id="_498083696" class="fil1" d="M1371.13 763.414 2507.01 1899.3l5.05 8.14 4.29 8.11 3.56 8.07 2.88 8.01 2.23 7.94 1.62 7.84 1.04 7.74.51 7.61.01 7.46-.44 7.32-.87 7.14-1.24 6.95-1.59 6.74-1.9 6.53-2.16 6.29-2.39 6.03-2.59 5.77-2.73 5.48-2.85 5.17-2.93 4.87-2.96 4.52-2.96 4.18-2.93 3.81-2.85 3.43-2.73 3.03-2.59 2.61-2.39 2.19-2.16 1.74-1.9 1.27-1.59.8-1.24.3-.87-.2L1343.46 930.304l.86.208 1.25-.302 1.59-.797 1.9-1.277 2.16-1.739 2.39-2.185 2.58-2.616 2.74-3.031 2.85-3.428 2.93-3.811 2.96-4.177 2.96-4.526 2.93-4.86 2.85-5.18 2.73-5.479 2.59-5.765 2.39-6.035 2.16-6.287 1.9-6.526 1.59-6.746 1.24-6.951.87-7.14.44-7.312-.01-7.469-.51-7.61-1.05-7.734-1.61-7.843-2.23-7.934-2.88-8.01-3.56-8.071-4.29-8.114z"/><path id="_498084056" class="fil1" d="m1578.84 1033.1 1135.88 1135.89-.09 10.2-.28 10.16-.46 10.12-.64 10.07-.82 10.02-1 9.97-1.18 9.91-1.35 9.86-1.53 9.81-1.69 9.75-1.87 9.69-2.04 9.62-2.2 9.57-2.37 9.5-2.53 9.44-2.7 9.37-2.85 9.3-3.02 9.23-3.17 9.16-3.33 9.08-3.48 9.01-3.63 8.94-3.79 8.85-3.93 8.78-4.09 8.69-4.23 8.61-4.37 8.53-4.52 8.44-4.65 8.35-4.8 8.26-4.94 8.17-5.07 8.08-1135.88-1135.88 5.07-8.08 4.94-8.17 4.79-8.26 4.66-8.35 4.52-8.44 4.37-8.53 4.23-8.61 4.09-8.7 3.93-8.77 3.79-8.86 3.63-8.93 3.48-9.01 3.33-9.09 3.17-9.15 3.02-9.24 2.85-9.3 2.7-9.36 2.53-9.44 2.37-9.5 2.2-9.57 2.04-9.63 1.86-9.69 1.7-9.74 1.53-9.81 1.35-9.86 1.18-9.92 1-9.96.82-10.02.64-10.07.46-10.12.28-10.16z"/><path id="_498083336" class="fil1" d="m1573.25 1017.53 1135.88 1135.88 1.41 1.89 1.23 2.01 1.03 2.14.82 2.25.61 2.35.37 2.43.12 2.51L1578.84 1033.1l-.12-2.5-.38-2.43-.6-2.35-.82-2.25-1.03-2.14-1.23-2.02z"/><path id="_517129240" class="fil1" d="M484.93 473.621zm906.062 534.996h163.365c13.521 0 24.484 10.964 24.484 24.485 0 109.11-31.79 210.873-86.625 296.547-53.724 83.94-129.62 152.347-219.428 196.984V1559.515c0 13.52-10.963 24.484-24.486 24.484H807.586c-13.522 0-24.484-10.963-24.484-24.484v-32.884c-89.809-44.637-165.704-113.043-219.428-196.983-54.835-85.673-86.626-187.437-86.626-296.546 0-13.522 10.963-24.486 24.484-24.486h267.515c-9.746-21.526-14.982-43.753-15.65-64.955-1.05-33.237 9.053-64.032 30.5-86.15l-66.258-80.97a207.134 207.134 0 0 0-5.25-6.177l-1.088.88c-32.955-31.435-44.347-7.37-92.875-66.286L479.09 536.129c-7.863-9.568-10.98-21.564-9.628-33.06.948-11.111 6.191-21.858 15.469-29.45 9.099-7.445 20.403-10.493 31.286-9.406.297.03.595.062.891.098 11.546.931 22.658 6.231 30.274 15.538l139.786 170.82c50.777 62.05 21.95 62.917 46.623 102.38l-1.195.966a246.681 246.681 0 0 0 7.435 9.525l64.09 77.875c25.511-15.418 56.748-18.786 88.161-11.407 35.252 8.28 70.796 30.192 98.278 63.775 27.482 33.582 41.928 72.76 43.07 108.953.062 1.969.085 3.93.068 5.88h357.293zm-157.088-451.828c19.963 14.152-48.494 94.123 15.542 189.978 15.42 23.079 27.587 51.084 31.005 83.803 3.862 36.973-42.394 130.59-53.679 123.904-7.743-5.49 11.674-78.117 7.639-116.752-2.156-20.65-10.353-39.1-20.814-54.756-26.08-39.04-39.44-68.12-40.989-101.95-1.395-30.453 42.177-131.564 61.296-124.226zm70.185 164.303c-2.021-44.113 59.47-131.958 74.388-127.049 17.663 12.522-60.598 89.66-7.347 169.37 58.09 86.94-20.612 171.895-27.672 166.89-5.159-3.057 8.472-66.758 5.53-94.94-1.392-13.33-6.796-25.41-13.706-35.751-19.817-29.664-29.978-51.996-31.193-78.52zm-136.181 92.032c6.554 45.354-34.668 117.992-55.337 107.273-10.03-1.876 10.429-91.364 9.6-97.092-.638-4.424-4.572-10.293-12.145-19.568-9.248-11.327-17.11-25.745-20.748-43.694-5.327-26.289 26.042-91.432 35.619-89.636 10.472 5.768 6.147 59.583 9.339 75.33 1.132 5.595 4.063 10.679 7.619 15.034 15.025 18.402 23.266 33.073 26.053 52.353z"/></g></g><path d="M1024-.001c565.541 0 1024 458.46 1024 1024s-458.461 1024-1024 1024c-565.541 0-1024-458.461-1024-1024 0-565.541 458.461-1024 1024-1024z" style="fill:none"/><path class="fil3" d="M807.187 845.14c4.47 5.463 3.252 13.475-2.211 17.946-5.464 4.47-13.518 3.666-17.988-1.797l-69.349-84.746c-43.467-53.117-50.588-14.756-103.776-79.331l-134.936-163.5c-7.445-9.1-10.494-20.404-9.407-31.286 1.088-10.882 6.313-21.36 15.41-28.804v-.001h.002c9.1-7.446 20.404-10.495 31.285-9.408 10.883 1.088 21.402 5.898 28.847 14.997l135.371 165.425c56.46 68.994 11.296 59.88 59.598 118.906l67.155 81.598z"/><path class="fil3" d="M994.599 1096.73c27.293-22.334 40.21-56.617 39.032-93.99-1.141-36.194-15.59-75.37-43.069-108.953h-.001c-27.48-33.582-63.026-55.495-98.277-63.775-36.4-8.55-72.561-2.671-99.853 19.663h-.001c-27.293 22.335-40.211 56.619-39.032 93.991 1.142 36.193 15.59 75.37 43.07 108.952 27.48 33.583 63.025 55.496 98.277 63.775 36.4 8.55 72.561 2.672 99.854-19.663z"/><path class="fil4" d="M990.152 1091.29c21.664-17.728 31.917-44.942 30.982-74.607-.906-28.729-12.375-59.827-34.187-86.483h-.002c-21.813-26.657-50.026-44.051-78.008-50.623-28.893-6.786-57.598-2.12-79.261 15.607v.001c-21.665 17.729-31.919 44.941-30.983 74.607.906 28.73 12.374 59.827 34.187 86.483 21.814 26.656 50.028 44.05 78.01 50.623 28.894 6.787 57.597 2.12 79.262-15.608z"/><path d="m722.125 762.488-10.822 8.757c-32.957-31.435-44.347-7.368-92.877-66.286L479.09 536.129c-15.36-18.693-12.612-46.656 6.201-62.052.164-.133.331-.264.496-.395l236.338 288.807z" style="fill:#ca2b03"/><path d="m733.791 753.049-11.432 9.25-.234.19L485.787 473.68l.037-.028c18.731-14.845 46.751-11.9 61.559 6.197l139.786 170.818c50.778 62.052 21.95 62.918 46.622 102.38z" style="fill:#dd2c00"/><path d="M971.357 1074.69a2.91 2.91 0 0 1-3.685-4.502c8.465-6.928 14.747-15.68 18.863-25.592 4.309-10.378 6.261-22.024 5.878-34.187-.375-11.85-2.976-24.215-7.778-36.368-4.63-11.712-11.317-23.225-20.04-33.885a2.909 2.909 0 0 1 4.503-3.683c9.093 11.111 16.079 23.154 20.935 35.435 5.046 12.769 7.78 25.801 8.175 38.326.41 13.004-1.682 25.467-6.3 36.588-4.479 10.786-11.322 20.315-20.551 27.868z" style="fill:#cfcfcf;fill-rule:nonzero"/><path d="M1578.84 1033.1c0 109.109-31.79 210.873-86.626 296.547-53.725 83.94-129.619 152.346-219.428 196.983v32.883c0 13.521-10.963 24.484-24.485 24.484H807.585c-13.522 0-24.485-10.963-24.485-24.484v-32.883c-89.808-44.637-165.704-113.043-219.428-196.983-54.835-85.674-86.626-187.438-86.626-296.547 0-13.523 10.963-24.484 24.485-24.484h1052.82c13.521 0 24.484 10.961 24.484 24.484z" style="fill:#8bc34a;fill-rule:nonzero"/><path d="M1027.94 1584v-575.381H501.529c-13.523 0-24.486 10.962-24.486 24.484 0 109.11 31.792 210.873 86.627 296.547 53.724 83.94 129.619 152.346 219.428 196.983v32.883c0 13.522 10.963 24.485 24.484 24.485h220.358z" style="fill:#7cb342"/><path d="M1272.79 1526.63c89.809-44.637 165.703-113.043 219.428-196.983 54.835-85.674 86.626-187.438 86.626-296.547 0-13.522-10.963-24.484-24.485-24.484h-526.414v575.38h220.358c13.523 0 24.486-10.962 24.486-24.483v-32.884z" style="fill:#8bc34a"/><path d="M1027.94 1584v-57.34H783.097v32.856c0 13.521 10.963 24.484 24.484 24.484h220.358z" style="fill:#6ea53b"/><path d="M1027.94 1526.66V1584h220.358c13.523 0 24.485-10.963 24.485-24.484v-32.856H1027.94z" style="fill:#7ab242"/><path class="fil4" d="M1233.9 556.79c-19.119-7.34-62.69 93.774-61.296 124.226 1.549 33.83 14.908 62.911 40.99 101.95 10.46 15.655 18.657 34.105 20.813 54.756 4.036 38.635-15.382 111.262-7.638 116.752 11.284 6.687 57.54-86.93 53.678-123.904-3.418-32.719-15.584-60.724-31.005-83.803-64.036-95.855 4.421-175.826-15.542-189.978z"/><path class="fil3" d="M1378.48 594.044c-14.917-4.907-76.41 82.936-74.388 127.049 1.215 26.524 11.376 48.856 31.193 78.52 6.91 10.34 12.314 22.42 13.706 35.75 2.943 28.183-10.689 91.884-5.53 94.942 7.06 5.005 85.763-79.95 27.673-166.89-53.252-79.711 25.01-156.849 7.346-169.37zM1112.57 920.397c20.67 10.72 61.891-61.918 55.337-107.274-2.786-19.28-11.028-33.95-26.053-52.352-3.556-4.355-6.486-9.439-7.62-15.035-3.19-15.746 1.136-69.56-9.338-75.33-9.576-1.796-40.945 63.348-35.618 89.637 3.637 17.95 11.5 32.366 20.748 43.694 7.572 9.275 11.506 15.145 12.145 19.568.828 5.729-19.63 95.216-9.601 97.092z"/></g></svg>