<svg xmlns="http://www.w3.org/2000/svg" viewBox="0 0 512 512"><defs><style>.cls-3{fill:#fff}.cls-4{fill:#cfcecd}.cls-9{fill:#9b3142}.cls-14{fill:#75c07d}.cls-15{fill:#64a268}.cls-16{fill:#d93a46}.cls-17{fill:#a1323f}</style></defs><circle cx="256" cy="256" r="256" style="fill:#f0c788" id="BULINE"/><g id="Icons"><path d="M446 427.61a256 256 0 0 1-379.94 0z" style="fill:#96663e"/><path class="cls-3" d="M171.81 74.88h44.36a70.57 70.57 0 0 1 70.57 70.57v12.43h-185.5v-12.43a70.57 70.57 0 0 1 70.57-70.57z"/><path class="cls-4" d="M209.55 74.88A70.56 70.56 0 0 0 139 145.45v12.43h-39v-12.43a70.56 70.56 0 0 1 70.56-70.57z"/><path d="M272 32.29v-9.36a7.43 7.43 0 0 0-7.43-7.43h-73.76a8.82 8.82 0 0 0-8.81 8.82V134h24.23V48.55a8.82 8.82 0 0 1 8.77-8.82h49.48a7.43 7.43 0 0 0 7.52-7.44z" style="fill:#c6668f"/><path d="M248.2 459.88H139.78a21.26 21.26 0 0 1-21.21-19.74L100 182.88h188l-18.58 257.26a21.28 21.28 0 0 1-21.22 19.74z" style="fill:#aadee6"/><path d="M136.38 459.88H251.6v5.25a12.25 12.25 0 0 1-12.25 12.25h-90.72a12.25 12.25 0 0 1-12.25-12.25v-5.25z" style="fill:#90bcbe"/><path d="M271.19 167.88a17.49 17.49 0 0 0-17.5-17.5h-20.55a17.46 17.46 0 0 0 5.26-12.5 17.5 17.5 0 0 0-17.5-17.5h-8.68a31.46 31.46 0 0 0 1.44-28.16L212 88.41l-21.45 9.39a31.47 31.47 0 0 0-18.23 22.58h-5.24a17.5 17.5 0 0 0-17.5 17.5 17.43 17.43 0 0 0 5.27 12.5h-20.56a17.49 17.49 0 0 0-17.5 17.5 17.47 17.47 0 0 0 8.52 15h-8.52L132 427.61c.66 10.58 8.27 18.77 17.43 18.77h89.05c9.15 0 16.76-8.19 17.42-18.77l15.25-244.73h-8.52a17.47 17.47 0 0 0 8.56-15z" style="fill:#db3a46"/><path class="cls-9" d="M212.22 120.38h-3.14a17.51 17.51 0 0 0-17.5 17.5 17.27 17.27 0 0 0 1.42 6.9 17.48 17.48 0 0 0 3.84 5.6h-20.55a17.5 17.5 0 0 0-17.5 17.5 17.23 17.23 0 0 0 2.35 8.74 17.54 17.54 0 0 0 6.17 6.26h-8.52L174 427.61c.66 10.58 8.27 18.77 17.42 18.77h-42c-9.15 0-16.76-8.19-17.42-18.77l-15.21-244.73h8.52a17.54 17.54 0 0 1-6.17-6.26 17.23 17.23 0 0 1-2.35-8.74 17.5 17.5 0 0 1 17.5-17.5h20.55a17.48 17.48 0 0 1-3.84-5.6 17.27 17.27 0 0 1-1.42-6.9 17.51 17.51 0 0 1 17.5-17.5h5.23a31.51 31.51 0 0 1 18.24-22.58L212 88.41l1.67 3.81a31.49 31.49 0 0 1-1.45 28.16z"/><rect class="cls-4" x="80.89" y="157.88" width="226.2" height="25" rx="12.5"/><path d="M139.25 179.22a12.47 12.47 0 0 0 8.84 3.66h-53a12.5 12.5 0 0 1 0-25h53a12.5 12.5 0 0 0-8.84 21.34z" style="fill:#bababa"/><circle class="cls-9" cx="208.6" cy="218.88" r="14.61"/><circle class="cls-9" cx="223.22" cy="346.88" r="14.61"/><circle class="cls-9" cx="193.99" cy="287.88" r="9.61"/><circle class="cls-9" cx="193.99" cy="406.38" r="9.61"/><circle class="cls-9" cx="247.45" cy="267.39" r="9.61"/><ellipse class="cls-3" cx="193.99" cy="303.88" rx="50.59" ry="60"/><ellipse cx="193.99" cy="303.88" rx="32.98" ry="39.12" style="fill:#eaac2e"/><path d="M210.48 360.62a43.5 43.5 0 0 1-16.5 3.26c-27.93 0-50.58-26.86-50.58-60s22.65-60 50.58-60a43.5 43.5 0 0 1 16.5 3.26 51.47 51.47 0 0 0-22.3 18.22 68.77 68.77 0 0 0 0 77 51.47 51.47 0 0 0 22.3 18.26z" style="fill:#dad9d9"/><path d="M176.38 303.88a66.75 66.75 0 0 0 11.8 38.52c-15.44-3.25-27.18-19.27-27.18-38.52s11.74-35.27 27.18-38.52a66.75 66.75 0 0 0-11.8 38.52z" style="fill:#ce962a"/><path class="cls-14" d="M298 347.25c-7.67 0-13.91 9-14.26 20.27-8.6-6.81-19.14-7.89-24.1-2.24s-2.53 16 5.35 23.64a34.32 34.32 0 0 0-3.39-.13c-11.72.24-21.1 6.83-20.94 14.72s9.8 14.09 21.53 13.85 21.1-6.83 20.93-14.72a10.42 10.42 0 0 0-2-5.76c4.21.32 8-.81 10.38-3.57a10 10 0 0 0 2.25-4.53 10 10 0 0 0 4.21.94c7.89 0 14.28-9.51 14.28-21.24s-6.33-21.23-14.24-21.23z"/><path class="cls-15" d="M257.07 403.5c.12 5.78 5.31 10.67 12.7 12.76a30 30 0 0 1-7.56 1.1c-11.73.24-21.36-6-21.53-13.86s9.22-14.47 20.95-14.71c1.15 0 2.28 0 3.39.13-7.89-7.66-10.32-18-5.36-23.64 3.85-4.37 11-4.7 18-1.49a10.11 10.11 0 0 0-1.65 1.49c-5 5.65-2.53 16 5.35 23.64-1.12-.09-2.24-.15-3.4-.13-11.68.21-21.05 6.83-20.89 14.71z"/><path class="cls-16" d="M275.35 438.69c11.57 17.8 42.59 33.94 60.39 22.37s15.66-46.46 4.1-64.27a38.45 38.45 0 0 0-64.49 41.9z"/><path class="cls-17" d="M334 461.7c-18 10.29-48-5.55-59.32-23a38.43 38.43 0 0 1 46.93-56.45 39.85 39.85 0 0 0-6.18 3.27 38.43 38.43 0 0 0-11.31 53.18c6.08 9.42 17.65 18.38 29.88 23z"/><ellipse class="cls-3" cx="327.18" cy="396.57" rx="4.2" ry="6.36" transform="rotate(-41.92 327.224 396.583)"/><ellipse class="cls-3" cx="283.4" cy="434.28" rx="4.2" ry="6.36" transform="rotate(-28.57 283.361 434.253)"/><ellipse class="cls-3" cx="296.4" cy="421.33" rx="4.2" ry="6.36" transform="rotate(-28.57 296.363 421.296)"/><ellipse class="cls-3" cx="314.78" cy="407.01" rx="4.2" ry="6.36" transform="rotate(-44.31 314.802 407.019)"/><ellipse class="cls-3" cx="333.95" cy="417.72" rx="4.2" ry="6.36" transform="rotate(-41.92 333.985 417.733)"/><ellipse class="cls-3" cx="301.18" cy="447.26" rx="4.2" ry="6.36" transform="rotate(-28.57 301.136 447.227)"/><ellipse class="cls-3" cx="316.54" cy="431.82" rx="4.2" ry="6.36" transform="rotate(-36.55 316.514 431.798)"/><ellipse class="cls-3" cx="285.9" cy="404.24" rx="4.2" ry="6.36" transform="rotate(-19.96 285.858 404.176)"/><ellipse class="cls-3" cx="298.83" cy="392.87" rx="4.2" ry="6.36" transform="rotate(-49.85 298.813 392.866)"/><ellipse class="cls-3" cx="321.91" cy="456.13" rx="4.2" ry="6.36" transform="rotate(-72.63 321.914 456.13)"/><ellipse class="cls-3" cx="339.23" cy="440.22" rx="4.2" ry="6.36" transform="rotate(-21.39 339.195 440.191)"/><path class="cls-14" d="M428.5 361.2c-5-5.85-15.85-4.8-24.68 2.23-.37-11-6.36-19.7-13.87-19.84S376.12 352 375.37 363a30.74 30.74 0 0 0-2.1-2.67c-7.76-8.79-18.84-11.69-24.76-6.47s-4.42 16.59 3.35 25.38 18.85 11.68 24.76 6.46a10.44 10.44 0 0 0 3.13-5.23c2.47 3.43 5.77 5.56 9.43 5.62a10.09 10.09 0 0 0 4.91-1.21 10.11 10.11 0 0 0 2 3.81c5.1 6 16.49 4.76 25.44-2.82s12.07-18.65 6.97-24.67z"/><path class="cls-15" d="M359.11 366.32c-4.34 3.83-4.7 10.95-1.52 17.94a29.65 29.65 0 0 1-5.73-5.06c-7.77-8.79-9.27-20.15-3.35-25.38s17-2.33 24.77 6.47a32.18 32.18 0 0 1 2.09 2.67c.75-11 7.06-19.5 14.58-19.37 5.82.11 10.7 5.36 12.8 12.8a10.23 10.23 0 0 0-2.21-.3C393 356 386.71 364.5 386 375.46a30.74 30.74 0 0 0-2.1-2.67c-7.79-8.79-18.9-11.69-24.79-6.47z"/><path class="cls-16" d="M344.08 403c-6.1 20.34 1.63 54.44 22 60.55s45.57-18.09 51.68-38.43A38.45 38.45 0 0 0 344.08 403z"/><path class="cls-17" d="M364.41 462.6c-19.47-7.05-26.79-40.19-20.79-60.14a38.43 38.43 0 0 1 73.41-.68 40.17 40.17 0 0 0-6.49-2.61 38.45 38.45 0 0 0-47.89 25.76c-3.24 10.77-2.59 25.39 1.76 37.67z"/><ellipse class="cls-3" cx="409.72" cy="415.33" rx="6.36" ry="4.2" transform="rotate(-82.2 409.688 415.33)"/><ellipse class="cls-3" cx="352.64" cy="406.31" rx="6.36" ry="4.2" transform="rotate(-68.84 352.64 406.3)"/><ellipse class="cls-3" cx="370.93" cy="407.86" rx="6.36" ry="4.2" transform="rotate(-68.84 370.925 407.86)"/><ellipse class="cls-3" cx="393.74" cy="412.62" rx="6.36" ry="4.2" transform="rotate(-84.58 393.772 412.623)"/><ellipse class="cls-3" cx="397.96" cy="434.17" rx="6.36" ry="4.2" transform="rotate(-82.2 397.926 434.169)"/><ellipse class="cls-3" cx="354.24" cy="428.26" rx="6.36" ry="4.2" transform="rotate(-68.84 354.242 428.265)"/><ellipse class="cls-3" cx="375.94" cy="430" rx="6.36" ry="4.2" transform="rotate(-76.82 375.94 429.998)"/><ellipse class="cls-3" cx="377.19" cy="388.79" rx="6.36" ry="4.2" transform="rotate(-60.23 377.178 388.793)"/><ellipse class="cls-3" cx="394.22" cy="391.31" rx="4.2" ry="6.36" transform="rotate(-.12 395.886 391.936)"/><ellipse class="cls-3" cx="360.87" cy="449.81" rx="4.2" ry="6.36" transform="rotate(-22.9 360.927 449.847)"/><ellipse class="cls-3" cx="384.2" cy="452.74" rx="6.36" ry="4.2" transform="rotate(-61.66 384.203 452.744)"/></g></svg>