<svg
        xmlns="http://www.w3.org/2000/svg"
        viewBox="0 0 64 64"
        width="128"
        height="128"
>
    <!-- Outer bowl -->
    <circle cx="32" cy="32" r="30" fill="#555555" />

    <!-- Inner bowl -->
    <circle cx="32" cy="32" r="25" fill="#FFFFFF" />

    <!-- Rice -->
    <circle cx="32" cy="32" r="18" fill="#FDFDFD" />

    <!-- Kimchi -->
    <path
            d="M45 32 Q50 28, 48 38 Q43 40, 45 32"
            fill="#FF6347"
    />
    <path
            d="M47 34 Q52 32, 50 40 Q45 42, 47 34"
            fill="#FF4500"
    />

    <!-- Spinach -->
    <path
            d="M20 20 Q25 15, 28 22 Q22 25, 20 20"
            fill="#3CB371"
    />
    <path
            d="M18 23 Q22 18, 26 26 Q20 28, 18 23"
            fill="#228B22"
    />

    <!-- Gochujang -->
    <circle cx="32" cy="40" r="5" fill="#B22222" />
    <circle cx="32" cy="40" r="5.5" fill="none" stroke="#8B0000" stroke-width="0.5" />

    <!-- Mushrooms -->
    <circle cx="20" cy="38" r="4" fill="#8B4513" />
    <circle cx="24" cy="40" r="3" fill="#A0522D" />

    <!-- Sesame Seeds -->
    <circle cx="30" cy="30" r="0.5" fill="#C5A56F" />
    <circle cx="34" cy="32" r="0.5" fill="#C5A56F" />
    <circle cx="28" cy="35" r="0.5" fill="#C5A56F" />
    <circle cx="36" cy="34" r="0.5" fill="#C5A56F" />

    <!-- Bowl rim -->
    <circle cx="32" cy="32" r="30" fill="none" stroke="#333333" stroke-width="2" />
</svg>
