<?xml version="1.0" encoding="iso-8859-1"?>
<!-- Uploaded to: SVG Repo, www.svgrepo.com, Generator: SVG Repo Mixer Tools -->
<svg height="800px" width="800px" version="1.1" id="Layer_1" xmlns="http://www.w3.org/2000/svg" xmlns:xlink="http://www.w3.org/1999/xlink" 
	 viewBox="0 0 314.36 314.36" xml:space="preserve">
<g>
	<path style="fill:#F59D00;" d="M306.859,152.649v35.844c0,28.527-25.668,54.894-58.373,48.162
		c-11.094-2.282-22.608-6.653-33.816-13.192c-47.603-27.818-46.318,44.517-117.988,38.983C39.489,258.039,7.5,216.521,7.5,175.038
		v-35.844c0,41.484,31.993,82.997,89.182,87.407c71.671,5.534,70.385-66.801,117.988-38.983
		c11.208,6.539,22.722,10.911,33.816,13.192c25.554,5.254,46.807-9.687,54.885-30.083
		C305.635,165.019,306.859,158.891,306.859,152.649z"/>
	<path style="fill:#FF7876;" d="M296.054,122.505c-24.461-30.59-73.961-68.925-168.992-70.866C44.533,49.951,7.5,94.555,7.5,139.194
		c0,41.484,31.993,82.997,89.182,87.407c71.671,5.534,70.385-66.801,117.988-38.983c11.208,6.539,22.722,10.911,33.816,13.192
		c25.554,5.254,46.807-9.687,54.885-30.083c2.264-5.709,3.488-11.837,3.488-18.079C306.859,142.402,303.546,131.877,296.054,122.505
		z"/>
	<path style="fill:#FFE49C;" d="M102.67,148.199c0,11.907-9.66,21.559-21.568,21.559c-11.907,0-21.568-9.652-21.568-21.559
		c0-11.916,9.66-21.568,21.568-21.568C93.01,126.631,102.67,136.283,102.67,148.199z"/>
	<g>
		<path style="fill:#414042;" d="M301.912,117.822C301.912,117.822,301.911,117.821,301.912,117.822
			c-22.989-28.747-65.846-62.694-142.686-71.553c-46.943-5.412-98.831-2.638-132.92,30.761C9.343,93.65,0,115.727,0,139.194v35.844
			c0,43.473,33.012,90.024,96.104,94.885c33.493,2.591,52.621-9.721,73.875-29.994c14.208-13.553,22.034-21.02,40.912-9.988
			c65.765,38.371,103.469-5.362,103.469-41.448v-35.844C314.359,140.051,310.055,128.008,301.912,117.822z M290.196,127.189
			c12.252,15.328,11.696,34.962,1.435,49.563l-59.823-95.136C259.316,94.789,277.889,111.798,290.196,127.189z M255.493,194.234
			L173.24,63.429c12.707,2.199,24.294,5.148,34.858,8.658l72.614,115.478C273.849,192.242,265.295,194.996,255.493,194.234z
			 M153.85,60.772l80.532,128.067c-16.816-6.505-23.956-14.838-38.937-15.144L123.385,59.1
			C132.385,59.136,143.371,59.693,153.85,60.772z M36.805,87.744c16.236-15.907,39.941-25.418,69.293-27.958l73.884,117.494
			c-23.495,11.652-35.047,45.523-82.723,41.843C45.791,215.154,15,178.555,15,139.194C15,119.792,22.744,101.52,36.805,87.744z
			 M249.997,229.308c-10.684-2.197-21.298-6.343-31.543-12.321c-28.62-16.726-43.979-2.078-58.829,12.087
			c-13.96,13.316-29.781,28.41-62.367,25.893c-35.95-2.77-72.288-25.121-80.527-63.332c18.389,26.06,48.242,40.042,79.373,42.443
			c33.492,2.591,52.621-9.722,73.875-29.994c14.208-13.553,22.035-21.02,40.912-9.988c30.431,17.757,64.752,23.194,88.366-2.729
			C297.624,214.245,276.726,234.809,249.997,229.308z"/>
		<path style="fill:#414042;" d="M81.103,177.258c16.028,0,29.067-13.036,29.067-29.059c0-16.028-13.039-29.067-29.067-29.067
			s-29.068,13.04-29.068,29.067C52.035,164.222,65.075,177.258,81.103,177.258z M81.103,134.131c7.757,0,14.067,6.311,14.067,14.067
			c0,7.752-6.31,14.059-14.067,14.059s-14.068-6.307-14.068-14.059C67.035,140.442,73.346,134.131,81.103,134.131z"/>
	</g>
</g>
</svg>