<svg xmlns="http://www.w3.org/2000/svg" viewBox="0 0 512 512"><defs><style>.cls-3{fill:#f0c788}.cls-4{fill:#96663e}.cls-5{fill:#76c27d}.cls-7{fill:#efcc34}.cls-8{fill:#d7b931}.cls-9{fill:#db9c2a}.cls-10{fill:#c68b28}.cls-11{fill:#cfcfcf}</style></defs><circle cx="256" cy="256" r="256" style="fill:#c27135" id="BULINE"/><g id="Icons"><path d="M419.32 453.14a256 256 0 0 1-326.64 0h326.64z" style="fill:#313d74"/><path class="cls-3" d="m402.59 46.1-208.52-4.22h-.36l-7.71-.16-20.06-.41-6.42-.13-20.06-.41-21.46-.43-2.31-.05a6.9 6.9 0 0 1-7-6.64 6.9 6.9 0 0 1 7-6.64l23.75-.48 3.08-.06 17-.35 6.44-.13 20-.41 7.63-.15h.49l166-3.36a255.6 255.6 0 0 1 42.51 24.03z"/><path class="cls-4" d="M194.07 40.78a2.05 2.05 0 0 1-2.19 2l-76.18-2.49a6.9 6.9 0 0 1-7-6.64 6.9 6.9 0 0 1 7-6.64l76.18-2.3a2.06 2.06 0 0 1 2.19 2z"/><path class="cls-3" d="M475 123.36 305.07 94l-36-6.22L258 85.87 218 79l-26.08-4.51-.35-.06-5.59-1L165.93 70l-6.42-1.11-20.06-3.49-24.76-4.28a6.65 6.65 0 1 1 2-13.13l22.76 3 20.06 2.63 6.42.84L186 57.08l7.93 1.05.49.06L292.07 71l20.15 2.65 140.43 18.44A256.47 256.47 0 0 1 475 123.36z"/><path class="cls-4" d="M192.1 73.38a2.05 2.05 0 0 1-2.46 1.62l-74.95-13.88a6.65 6.65 0 1 1 2-13.13l75.66 9.18a2.05 2.05 0 0 1 1.87 2.27z"/><path class="cls-5" d="M97.75 194.32v26a47 47 0 0 1-47 47v-26a47 47 0 0 1 47-47z" transform="rotate(-74.1 74.254 230.823)"/><path class="cls-5" d="M119.21 161.72v26a47 47 0 0 1-47 47v-26a47 47 0 0 1 47-47z" transform="rotate(-39.36 95.739 198.23)"/><path class="cls-5" d="m265.63 95-1.22 3.54a37.06 37.06 0 0 0-25.23-25.45l-19.68-5.78a37.08 37.08 0 0 0 25.14 46l19.68 5.77c.31-1 .56-2.11.78-3.17a37.08 37.08 0 0 0 41-24.51l6.68-19.4a37.08 37.08 0 0 0-47.15 23z"/><path d="M451.79 197.28v26a47 47 0 0 1-47 47v-26a47 47 0 0 1 47-47z" transform="rotate(23.08 428.276 233.766)" style="fill:#8ed685"/><path class="cls-5" d="M376.37 118.59v26a47 47 0 0 1-47 47v-26a47 47 0 0 1 47-47z" transform="rotate(20.64 352.87 155.096)"/><rect class="cls-7" x="139.45" y="16.49" width="20.06" height="236.28" rx="10.03"/><rect class="cls-7" x="165.93" y="16.49" width="20.06" height="236.28" rx="10.03"/><path class="cls-7" d="M342.82 187.64a86.36 86.36 0 1 0-172.71 0zM170.11 187.64a86.36 86.36 0 0 0 172.71 0z"/><circle class="cls-8" cx="256.47" cy="187.64" r="65.13" transform="rotate(-45 256.471 187.636)"/><circle class="cls-9" cx="256.47" cy="187.64" r="43.03" transform="rotate(-58.28 256.486 187.642)"/><path class="cls-10" d="M282.16 187.64a25.69 25.69 0 1 0-25.69 25.69 25.69 25.69 0 0 0 25.69-25.69z"/><path class="cls-7" d="M255.58 255.3a86.36 86.36 0 1 0-172.71 0z"/><path class="cls-8" d="M234.36 255.3a65.14 65.14 0 1 0-130.27 0z"/><path class="cls-9" d="M212.26 255.3a43 43 0 1 0-86.07 0z"/><path class="cls-10" d="M194.91 255.3a25.69 25.69 0 1 0-51.37 0z"/><path class="cls-7" d="M428.29 255.3a86.36 86.36 0 1 0-172.71 0z"/><path class="cls-8" d="M407.07 255.3a65.14 65.14 0 1 0-130.27 0z"/><path class="cls-9" d="M385 255.3a43 43 0 1 0-86.07 0z"/><path class="cls-10" d="M367.63 255.3a25.69 25.69 0 0 0-51.38 0z"/><path class="cls-11" d="M183.33 434.44h144.51v43a12 12 0 0 1-12 12H195.37a12 12 0 0 1-12-12v-43h-.04z"/><path d="M437.21 263.74V296a164.92 164.92 0 0 1-164.92 165h-33.41A164.93 164.93 0 0 1 74 296v-32.26a8.29 8.29 0 0 1 8.29-8.28h346.64a8.28 8.28 0 0 1 8.28 8.28z" style="fill:#fff"/><path d="M437.21 288.6v7.4a164.91 164.91 0 0 1-164.92 165h-33.41A164.91 164.91 0 0 1 74 296v-7.4z" style="fill:#db3a46"/><path class="cls-11" d="M196.36 263.74a8.29 8.29 0 0 1 8.29-8.28H82.53a8.28 8.28 0 0 0-8.28 8.28v24.86h122.11z"/><path d="M196.36 296v-7.4H74.25v7.4a164.93 164.93 0 0 0 164.93 165h33.41a165.11 165.11 0 0 0 44.35-6 165 165 0 0 1-120.58-159z" style="fill:#a52f3c"/></g></svg>