<svg xmlns="http://www.w3.org/2000/svg" viewBox="0 0 512 512"><defs><style>.cls-3{fill:#72a569}.cls-4{fill:#65915a}.cls-5{fill:#80bf78}.cls-6{fill:#8ed685}.cls-7{fill:#253d3a}.cls-8{fill:#d4e85e}.cls-9{fill:#f9fbd9}.cls-10{fill:#9b112e}.cls-11{fill:#db3a46}.cls-12{fill:#db727e}.cls-13{fill:#72392f}.cls-14{fill:#60302a}.cls-15{fill:#8e4941}.cls-16{fill:#6ca1c5}</style></defs><circle cx="256" cy="256" r="256" style="fill:#f0c788" id="BULINE"/><g id="Icons"><path d="M485.79 369a256.09 256.09 0 0 1-459.58 0z" style="fill:#c6668f"/><path class="cls-3" d="M338.8 163.05c-10-17.09-2.11-26.6 3.52-30.77a4.87 4.87 0 0 0 1.2-6.63c-7.23-11.08-2.42-23.13 1.2-29.46a4.9 4.9 0 0 0-2.05-6.73c-13-6.87-22.83-20.22-28.55-29.55a9.78 9.78 0 0 0-14.37-2.56c-8.39 6.6-21.85 15.29-36.18 16.87a4.91 4.91 0 0 0-4.4 5.49c1 7.22 1 20.19-9.83 27.8a4.87 4.87 0 0 0-1.35 6.6c3.68 6 7.44 17.71-8.16 29.88a4.89 4.89 0 0 0-.27 7.54c6.14 5.37 15.49 15.87 13.35 28.67a4.83 4.83 0 0 0 3.86 5.65c5.93 1 14.75 4.36 15.56 15.34a4.85 4.85 0 0 0 4 4.34l2.89.56 2.9.56a4.85 4.85 0 0 0 5.29-2.56c4.84-9.9 14.27-9.73 20.14-8.47a4.84 4.84 0 0 0 5.69-3.81c2.77-12.67 15.34-18.95 23-21.66a4.89 4.89 0 0 0 2.56-7.1z"/><path class="cls-4" d="M293.3 197.31a15.91 15.91 0 0 0-5.92 6.78 4.84 4.84 0 0 1-5.29 2.56l-5.8-1.12a4.83 4.83 0 0 1-4-4.34c-.82-11-9.65-14.34-15.57-15.35a4.84 4.84 0 0 1-3.86-5.64c2.13-12.79-7.2-23.3-13.35-28.67a4.9 4.9 0 0 1 .28-7.55c15.59-12.16 11.82-23.9 8.15-29.87a4.89 4.89 0 0 1 1.35-6.61c10.83-7.59 10.84-20.57 9.83-27.79a4.91 4.91 0 0 1 4.39-5.49c14.39-1.58 27.86-10.22 36.24-16.87a9.77 9.77 0 0 1 14.36 2.56c1.17 1.91 2.52 4 4 6.14-8.2 5.68-19.14 11.52-30.64 12.78a4.91 4.91 0 0 0-4.4 5.49c1 7.22 1 20.2-9.83 27.79a4.9 4.9 0 0 0-1.34 6.61c3.67 6 7.44 17.71-8.16 29.87a4.89 4.89 0 0 0-.27 7.55c6.15 5.37 15.48 15.88 13.34 28.68a4.84 4.84 0 0 0 3.87 5.63c4.03.69 9.32 2.43 12.62 6.86z"/><path class="cls-3" d="M258.28 145.65c-16.14-13.09-11.95-25.35-8-31.54a5.15 5.15 0 0 0-1.29-7c-11.21-8.2-11-21.82-9.76-29.38a5.14 5.14 0 0 0-4.51-5.85c-15.28-2-29.93-11.39-39-18.44a10.26 10.26 0 0 0-15.06 2.81c-5.79 9.6-15.79 23.13-29.29 30a5.15 5.15 0 0 0-2.28 7c3.67 6.72 8.48 19.47.66 31a5.14 5.14 0 0 0 1.12 7c5.83 4.5 13.89 14.64 3.07 32.38a5.14 5.14 0 0 0 2.54 7.51c8 3 21.1 9.84 23.76 23.21a5.07 5.07 0 0 0 5.88 4.12c6.2-1.21 16.11-1.19 21 9.3a5.11 5.11 0 0 0 5.51 2.79l3.05-.53 3-.52a5.11 5.11 0 0 0 4.26-4.48c1.07-11.52 10.4-14.86 16.64-15.8a5.06 5.06 0 0 0 4.17-5.84c-2-13.49 8-24.32 14.6-29.84a5.14 5.14 0 0 0-.07-7.9z"/><path class="cls-4" d="M226.29 196.19a16.74 16.74 0 0 0-3.31 8.86 5.08 5.08 0 0 1-4.24 4.48l-6.11 1.05a5.08 5.08 0 0 1-5.5-2.8c-4.88-10.48-14.79-10.5-21-9.3a5.08 5.08 0 0 1-5.89-4.1c-2.65-13.37-15.72-20.23-23.75-23.22a5.14 5.14 0 0 1-2.53-7.52c10.81-17.73 2.75-27.87-3.07-32.37a5.12 5.12 0 0 1-1.13-7c7.82-11.49 3-24.24-.66-31a5.16 5.16 0 0 1 2.28-7c13.5-6.87 23.51-20.41 29.29-30a10.27 10.27 0 0 1 15.06-2.81c1.86 1.45 3.95 3 6.24 4.55-6 8.61-14.54 18.41-25.36 23.92a5.15 5.15 0 0 0-2.28 7c3.67 6.72 8.48 19.47.65 31a5.12 5.12 0 0 0 1.14 7c5.82 4.51 13.88 14.64 3.07 32.38a5.13 5.13 0 0 0 2.53 7.51c8 3 21.1 9.86 23.75 23.22a5.09 5.09 0 0 0 5.89 4.11c4.19-.83 10.05-1.09 14.93 2.04z"/><path class="cls-5" d="M365.49 140.55c-7.54 25.07-22.81 42.64-34.1 39.24s-14.32-26.47-6.78-51.54c4.08-13.56 13.73-23.94 21.72-30.6a11.21 11.21 0 0 1 17.93 5.35c2.99 10 5.31 24 1.23 37.55z"/><path class="cls-3" d="M339.13 179.2a11.51 11.51 0 0 1-7.74.59c-11.29-3.39-14.32-26.47-6.77-51.54 4.08-13.56 13.71-23.94 21.71-30.6a11.22 11.22 0 0 1 16.59 2.49 10.55 10.55 0 0 0-2.72 1.68c-8 6.67-17.65 17-21.73 30.6-5.92 19.66-5.32 38.11.66 46.78z"/><path class="cls-6" d="M179 160.9c-5.4-8.3-17.88-10.79-33.3-8 3.06-7 3.4-13.44.34-18.14-5.22-8-19-9-35-3.86a32.71 32.71 0 0 0-2.33-5.05c-8-14.19-24.54-20-36.89-13S55.94 137 63.96 151.18a33.47 33.47 0 0 0 4.66 6.37C55.7 170.82 50.06 185 55.63 193.56c2.76 4.25 7.92 6.52 14.53 7C59.85 214.5 56.24 228.13 62 237c10 15.4 44.32 10.83 76.61-10.19S189 176.3 179 160.9z"/><path class="cls-5" d="M91.67 135.43c.27.46.54.92.82 1.37a8.48 8.48 0 0 1-.56 9.93c-9.69 11.8-13.43 23.64-8.55 31.14a13.44 13.44 0 0 0 5.1 4.54 8.47 8.47 0 0 1 3.69 11.43c-5.69 10.66-6.92 20.53-2.38 27.5 7.76 11.91 30 11.88 54.67 1.52q-2.82 2-5.82 4C106.36 247.87 72.05 252.44 62 237c-5.79-8.9-2.18-22.54 8.12-36.52-6.6-.44-11.75-2.71-14.52-7-5.57-8.55.07-22.74 12.95-36.08a33.88 33.88 0 0 1-4.67-6.36c-8-14.18-4.5-31.35 7.87-38.34a23.6 23.6 0 0 1 17-2.3 31.16 31.16 0 0 0 2.92 25.03z"/><path class="cls-6" d="M452.21 224.83c4-9.05-.68-20.88-11.38-32.3 7.56-1.27 13.12-4.47 15.4-9.6 3.89-8.74-2.74-20.81-15.8-31.46a32.53 32.53 0 0 0 3-4.7c7.54-14.45 3.44-31.48-9.14-38.05s-28.9-.18-36.44 14.27a33.52 33.52 0 0 0-2.81 7.37c-18.19-3.54-33.17-.55-37.31 8.77-2.06 4.63-1.16 10.19 2.07 16-17.34-1-30.74 3.35-35 13.06-7.47 16.78 15 43.08 50.23 58.73s69.72 14.7 77.18-2.09z"/><path class="cls-5" d="M426.09 137.74c-.25.47-.49.95-.71 1.43a8.48 8.48 0 0 1-8.63 4.93c-15.17-1.71-27.15 1.6-30.79 9.78a13.42 13.42 0 0 0-1 6.74 8.46 8.46 0 0 1-7.58 9.31c-12 1-21 5.37-24.36 13-5.78 13 6.37 31.67 28.47 46.7q-3.25-1.26-6.52-2.71c-35.2-15.65-57.7-41.95-50.24-58.74 4.32-9.7 17.72-14.09 35.06-13.06-3.22-5.78-4.12-11.34-2.07-16 4.14-9.33 19.11-12.32 37.31-8.77a33.59 33.59 0 0 1 2.81-7.38c7.53-14.44 23.85-20.83 36.44-14.26a23.61 23.61 0 0 1 11.19 13 31.18 31.18 0 0 0-19.38 16.03z"/><circle class="cls-7" cx="120.5" cy="196.82" r="46.71"/><circle class="cls-8" cx="120.5" cy="196.82" r="36.31"/><path class="cls-9" d="M127.38 171.85a6.88 6.88 0 0 0-13.75-.24c-.07 3.8 2.88 11.23 6.68 11.3s7-7.26 7.07-11.06zM113.55 220.13a6.88 6.88 0 1 0 13.76.24c.06-3.8-2.89-11.22-6.69-11.29s-7 7.26-7.07 11.05zM144.92 202.91a6.88 6.88 0 0 0 .24-13.76c-3.8-.06-11.23 2.89-11.29 6.69s7.25 7 11.05 7.07zM96.64 189.08a6.88 6.88 0 0 0-.24 13.75c3.8.07 11.23-2.88 11.3-6.68s-7.26-7-11.06-7.07zM142.46 184.64a6.87 6.87 0 1 0-9.55-9.89c-2.73 2.63-5.9 10-3.26 12.71s10.08-.18 12.81-2.82zM98.55 209a6.87 6.87 0 1 0 9.55 9.89c2.73-2.64 5.9-10 3.26-12.71s-10.08.18-12.81 2.82zM132.69 218.78a6.88 6.88 0 1 0 9.89-9.56c-2.64-2.73-10-5.9-12.71-3.26s.18 10.04 2.82 12.82zM108.32 174.86a6.88 6.88 0 1 0-9.89 9.56c2.64 2.73 10 5.9 12.71 3.26s-.14-10.09-2.82-12.82z"/><circle class="cls-7" cx="209.14" cy="158.37" r="46.71"/><circle class="cls-8" cx="209.14" cy="158.37" r="36.31"/><path class="cls-9" d="M216 133.4a6.88 6.88 0 0 0-13.75-.23c-.07 3.79 2.88 11.22 6.68 11.29S216 137.2 216 133.4zM202.19 181.68a6.88 6.88 0 1 0 13.75.24c.07-3.79-2.88-11.22-6.68-11.29s-7 7.26-7.07 11.05zM233.56 164.46a6.88 6.88 0 0 0 .24-13.75c-3.8-.07-11.23 2.88-11.29 6.68s7.25 7 11.05 7.07zM185.28 150.63a6.88 6.88 0 1 0-.24 13.75c3.8.07 11.23-2.88 11.29-6.68s-7.25-7-11.05-7.07zM231.1 146.19a6.87 6.87 0 0 0-9.55-9.89c-2.74 2.64-5.9 10-3.27 12.71s10.09-.18 12.82-2.82zM187.19 170.55a6.87 6.87 0 1 0 9.55 9.89c2.73-2.63 5.9-10 3.26-12.71s-10.08.18-12.81 2.82zM221.32 180.33a6.88 6.88 0 1 0 9.9-9.56c-2.64-2.73-10-5.9-12.71-3.26s.18 10.09 2.81 12.82zM197 136.41a6.88 6.88 0 1 0-9.89 9.56c2.64 2.73 10 5.9 12.71 3.26s-.22-10.09-2.82-12.82z"/><circle class="cls-7" cx="304.58" cy="158.53" r="46.71"/><circle class="cls-8" cx="304.58" cy="158.53" r="36.31"/><path class="cls-9" d="M311.45 133.57a6.88 6.88 0 1 0-13.75-.24c-.06 3.79 2.89 11.22 6.68 11.29s7.01-7.26 7.07-11.05zM297.63 181.84a6.88 6.88 0 1 0 13.75.24c.06-3.79-2.89-11.22-6.68-11.29s-7.01 7.26-7.07 11.05zM329 164.62a6.88 6.88 0 1 0 .24-13.75c-3.79-.07-11.22 2.88-11.29 6.68s7.25 7 11.05 7.07zM280.71 150.79a6.88 6.88 0 0 0-.23 13.75c3.79.07 11.22-2.88 11.29-6.68s-7.26-7-11.06-7.07zM326.54 146.35a6.88 6.88 0 0 0-9.56-9.89c-2.73 2.64-5.9 10-3.26 12.71s10.08-.17 12.82-2.82zM282.62 170.71a6.88 6.88 0 1 0 9.56 9.89c2.73-2.63 5.89-10 3.26-12.71s-10.09.18-12.82 2.82zM316.76 180.49a6.88 6.88 0 1 0 9.89-9.56c-2.64-2.73-10-5.9-12.71-3.26s.18 10.09 2.82 12.82zM292.4 136.57a6.88 6.88 0 0 0-9.9 9.56c2.64 2.73 10 5.9 12.71 3.26s-.21-10.09-2.81-12.82z"/><path class="cls-10" d="M92.3 237.26a2.57 2.57 0 0 1-2.53-2.73 54.93 54.93 0 0 1 109.71 1.9 2.58 2.58 0 0 1-2.62 2.65z"/><path class="cls-11" d="M189.05 238.94a44.48 44.48 0 1 0-88.94-1.54z"/><path class="cls-12" d="M150.85 205.11a5.7 5.7 0 0 0-11.39-.2c-.06 3.15 2.39 9.3 5.53 9.36s5.81-6.01 5.86-9.16zM111.35 224.33a5.7 5.7 0 1 0-.2 11.39c3.15.06 9.3-2.39 9.35-5.53s-6.01-5.8-9.15-5.86zM127.2 208.54a5.7 5.7 0 0 0-7.79 8.31c2.29 2.16 8.49 4.47 10.65 2.18s-.57-8.34-2.86-10.49zM178.89 225.5a5.7 5.7 0 1 1-.19 11.39c-3.15 0-9.22-2.71-9.16-5.85s6.21-5.59 9.35-5.54zM163.6 209.17a5.7 5.7 0 1 1 7.5 8.58c-2.37 2.07-8.65 4.17-10.72 1.8s.85-8.31 3.22-10.38z"/><path class="cls-10" d="M194.64 178.59a2.58 2.58 0 0 1-1.09-3.57 54.93 54.93 0 0 1 97.9 49.57 2.57 2.57 0 0 1-3.52 1.23z"/><path class="cls-11" d="M281 222.29a44.48 44.48 0 1 0-79.36-40.18z"/><path class="cls-12" d="M261.34 175.19a5.7 5.7 0 0 0-10.16-5.19c-1.42 2.81-1.91 9.42.9 10.84s7.84-2.84 9.26-5.65zM217.41 175.25a5.7 5.7 0 0 0-5.14 10.17c2.8 1.42 9.41 1.91 10.83-.9s-2.88-7.84-5.69-9.27zM238.56 168a5.69 5.69 0 1 0-10.63 4c1.12 2.94 5.69 7.73 8.63 6.6s3.13-7.7 2-10.6zM277.68 205.77a5.7 5.7 0 0 1-5.14 10.17c-2.81-1.43-7.11-6.46-5.69-9.27s8.03-2.32 10.83-.9zM271 184.41a5.7 5.7 0 0 1 3 11c-3 .83-9.6 0-10.43-3.06s4.43-7.11 7.43-7.94z"/><circle class="cls-7" cx="211.74" cy="218.43" r="38.7"/><circle class="cls-8" cx="211.74" cy="218.43" r="30.08"/><path class="cls-9" d="M217.44 197.74a5.7 5.7 0 0 0-11.39-.19c-.06 3.14 2.39 9.3 5.53 9.35s5.8-6.01 5.86-9.16zM206 237.74a5.7 5.7 0 0 0 11.39.2c.05-3.15-2.39-9.3-5.54-9.36s-5.85 6.01-5.85 9.16zM232 223.47a5.7 5.7 0 0 0 .2-11.39c-3.15-.06-9.3 2.39-9.36 5.53s5.98 5.8 9.16 5.86zM192 212a5.7 5.7 0 0 0-.2 11.4c3.14.05 9.3-2.39 9.35-5.54s-6.03-5.79-9.15-5.86zM229.93 208.34a5.7 5.7 0 0 0-7.91-8.2c-2.27 2.19-4.89 8.27-2.7 10.53s8.35-.15 10.61-2.33zM193.55 228.52a5.7 5.7 0 1 0 7.92 8.19c2.26-2.18 4.89-8.26 2.7-10.53s-8.35.15-10.62 2.34zM221.83 236.61a5.7 5.7 0 0 0 8.2-7.91c-2.19-2.26-8.27-4.89-10.53-2.7s.15 8.35 2.33 10.61zM201.65 200.24a5.69 5.69 0 1 0-8.19 7.91c2.18 2.26 8.26 4.89 10.53 2.7s-.15-8.35-2.34-10.61z"/><circle class="cls-7" cx="327.94" cy="205.09" r="46.71"/><circle class="cls-8" cx="327.94" cy="205.09" r="36.31"/><path class="cls-9" d="M334.82 180.12a6.88 6.88 0 0 0-13.76-.24c-.06 3.8 2.89 11.23 6.69 11.29s7-7.25 7.07-11.05zM321 228.4a6.88 6.88 0 0 0 13.75.24c.07-3.8-2.88-11.23-6.68-11.29s-7.01 7.25-7.07 11.05zM352.36 211.17a6.88 6.88 0 0 0 .24-13.75c-3.8-.06-11.23 2.89-11.3 6.68s7.26 7.01 11.06 7.07zM304.08 197.35a6.88 6.88 0 1 0-.24 13.75c3.8.06 11.23-2.89 11.29-6.68s-7.26-7.01-11.05-7.07zM349.9 192.9a6.88 6.88 0 1 0-9.56-9.89c-2.73 2.64-5.9 10-3.26 12.71s10.09-.18 12.82-2.82zM306 217.27a6.88 6.88 0 1 0 9.56 9.89c2.73-2.64 5.9-10 3.26-12.71s-10.11.18-12.82 2.82zM340.12 227a6.87 6.87 0 1 0 9.89-9.55c-2.63-2.73-10-5.9-12.71-3.26s.18 10.12 2.82 12.81zM315.76 183.13a6.87 6.87 0 0 0-9.89 9.55c2.64 2.73 10 5.9 12.71 3.26s-.18-10.08-2.82-12.81z"/><ellipse class="cls-13" cx="264.45" cy="224.33" rx="21.15" ry="27.49" transform="rotate(-51.37 264.47 224.342)"/><path class="cls-14" d="M289.1 235a16.72 16.72 0 0 1-3.17 6.47c-7.3 9.13-22.82 8.84-34.68-.64s-15.57-24.56-8.28-33.68a16.6 16.6 0 0 1 5.62-4.52c-2.19 8.76 2.09 19.73 11.44 27.2S281 239.08 289.1 235z"/><ellipse class="cls-15" cx="266.04" cy="213.02" rx="5.82" ry="9.62" transform="rotate(-51.37 266.06 213.023)"/><ellipse class="cls-13" cx="177.02" cy="173.12" rx="21.15" ry="27.49" transform="rotate(-28.11 177.006 173.121)"/><path class="cls-14" d="M195.44 192.68a16.63 16.63 0 0 1-5.47 4.69c-10.31 5.51-24.45-.89-31.61-14.28s-4.6-28.71 5.7-34.22a16.76 16.76 0 0 1 6.95-1.93c-5.47 7.19-5.88 18.95-.23 29.52s15.64 16.77 24.66 16.22z"/><ellipse class="cls-15" cx="182.95" cy="163.36" rx="5.82" ry="9.62" transform="rotate(-28.11 182.952 163.361)"/><ellipse class="cls-13" cx="376.28" cy="179.73" rx="21.15" ry="27.49" transform="rotate(-28.11 376.278 179.733)"/><path class="cls-14" d="M394.7 199.28a16.78 16.78 0 0 1-5.47 4.7c-10.3 5.5-24.45-.89-31.6-14.29s-4.63-28.69 5.7-34.21a16.58 16.58 0 0 1 6.94-1.94c-5.47 7.19-5.87 19-.23 29.52s15.65 16.77 24.66 16.22z"/><ellipse class="cls-15" cx="382.21" cy="169.96" rx="5.82" ry="9.62" transform="rotate(-28.11 382.204 169.968)"/><path class="cls-10" d="M420 157.83a2.69 2.69 0 0 1 3.88.15 57.28 57.28 0 0 1-82.3 79.5 2.69 2.69 0 0 1 0-3.89z"/><path class="cls-11" d="M347.43 227.93a46.38 46.38 0 1 0 66.72-64.44z"/><path class="cls-12" d="M400.54 224.71a5.94 5.94 0 1 0 8.55-8.25c-2.28-2.36-8.62-5.1-11-2.82s.17 8.71 2.45 11.07zM415.5 181.41a5.94 5.94 0 0 0-8.26-8.54c-2.35 2.28-5.09 8.62-2.81 11s8.71-.18 11.07-2.46zM415.45 204.74a5.94 5.94 0 1 0-.38-11.87c-3.28.1-9.56 3-9.46 6.25s6.56 5.73 9.84 5.62zM364.83 230.35a5.94 5.94 0 1 1-8.26-8.54c2.36-2.28 8.8-4.8 11.07-2.44s-.45 8.7-2.81 10.98zM388.15 231.12a5.94 5.94 0 1 1-11.86-.8c.22-3.27 3.3-9.45 6.58-9.23s5.5 6.75 5.28 10.03z"/><path class="cls-16" d="M187.5 412.28h144.13v17.13a17.13 17.13 0 0 1-17.13 17.13H204.63a17.13 17.13 0 0 1-17.13-17.13v-17.13z"/><path d="M439.73 259.88v28.65a140.82 140.82 0 0 1-140.88 140.88h-78.56A140.78 140.78 0 0 1 79.4 288.53v-28.65z" style="fill:#7bb9ec"/><path d="M286.44 429.41h-66.15A140.88 140.88 0 0 1 79.4 288.53v-28.65h66.16v28.65a140.88 140.88 0 0 0 140.88 140.88z" style="fill:#75b0d8"/><rect class="cls-16" x="59.91" y="231.53" width="399.31" height="35.44" rx="17.72"/><path d="M147.81 261.77a17.63 17.63 0 0 0 12.52 5.2h-82.7a17.72 17.72 0 1 1 0-35.44h82.7a17.71 17.71 0 0 0-12.52 30.24z" style="fill:#6293ac"/><path d="M80.56 306.67a140 140 0 0 0 19.08 54.66h66.17a140.11 140.11 0 0 1-19.09-54.66z" style="fill:#d4d4d4"/><path d="M438.57 306.67H146.72a140.11 140.11 0 0 0 19.09 54.66h253.68a140 140 0 0 0 19.08-54.66z" style="fill:#fff"/></g></svg>