<?xml version="1.0" encoding="utf-8"?>
<!-- Generator: Adobe Illustrator 24.1.1, SVG Export Plug-In . SVG Version: 6.00 Build 0)  -->
<svg version="1.1" id="Layer_1" xmlns="http://www.w3.org/2000/svg" xmlns:xlink="http://www.w3.org/1999/xlink" x="0px" y="0px"
	 viewBox="0 0 512 512" style="enable-background:new 0 0 512 512;" xml:space="preserve">
<style type="text/css">
	.st0{fill:#95A5A6;}
	.st1{fill:#7F8C8D;}
	.st2{fill:#BDC3C7;}
	.st3{fill:#ECF0F1;}
</style>
<g id="XMLID_1_">
	
		<rect id="XMLID_3_" x="353.2" y="284.8" transform="matrix(0.7071 -0.7071 0.7071 0.7071 -165.2807 398.8813)" class="st0" width="91.4" height="228.4"/>
	
		<rect id="XMLID_4_" x="296.8" y="307.9" transform="matrix(0.7071 -0.7071 0.7071 0.7071 -141.6782 342.3757)" class="st1" width="91.4" height="68.5"/>
	<path id="XMLID_7_" class="st2" d="M59.8,59.7c-79.5,80.3-79.5,210.3,0,289.8c80.3,79.5,210.3,79.5,290.6,0s80.3-210.3,0-289.8
		S140.1-19.9,59.8,59.7z M108.6,107.7c53.6-52.8,140.2-52.8,193.7,0c53.6,55.1,53.6,141.8,0,193.7c-53.6,52.8-140.2,52.8-193.7,0
		C55,249.5,55,162.8,108.6,107.7z"/>
	<circle id="XMLID_8_" class="st3" cx="203.9" cy="208.5" r="148.1"/>
</g>
</svg>
